<?xml version="1.0" encoding="utf-8"?>
<!-- Generator: Adobe Illustrator 27.5.0, SVG Export Plug-In . SVG Version: 6.00 Build 0)  -->
<svg version="1.1" xmlns="http://www.w3.org/2000/svg" xmlns:xlink="http://www.w3.org/1999/xlink" x="0px" y="0px"
	 viewBox="0 0 750 500" style="enable-background:new 0 0 750 500;" xml:space="preserve">
<g id="Background_Complete">
	<g>
		<g>
			<g>
				<g>
					<rect x="159.373" y="49.187" style="fill:#E0E0E0;" width="7.151" height="153.756"/>
				</g>
			</g>
		</g>
		<g>
			<g>
				<g>
					<path style="fill:#F5F5F5;" d="M55.637,50.479v152.575c0,0.057,0.046,0.103,0.103,0.103h102.443
						c0.057,0,0.103-0.046,0.103-0.103V50.479c0-0.057-0.046-0.103-0.103-0.103H55.741C55.684,50.376,55.637,50.422,55.637,50.479z"
						/>
				</g>
			</g>
		</g>
		<g>
			<g>
				<g>
					<g>
						<path style="fill:#EBEBEB;" d="M159.373,204.346H54.551c-0.057,0-0.103-0.046-0.103-0.103V49.29
							c0-0.057,0.046-0.103,0.103-0.103h104.822c0.057,0,0.103,0.046,0.103,0.103v154.953
							C159.477,204.3,159.43,204.346,159.373,204.346z M56.93,201.968h100.064c0.057,0,0.103-0.046,0.103-0.103V51.668
							c0-0.057-0.046-0.103-0.103-0.103H56.93c-0.057,0-0.103,0.046-0.103,0.103v150.196
							C56.827,201.922,56.873,201.968,56.93,201.968z"/>
					</g>
				</g>
			</g>
		</g>
		<g>
			<g>
				<g>
					<path style="fill:#FFFFFF;" d="M65.973,59.904v133.623c0,0.057,0.046,0.103,0.103,0.103h81.953
						c0.057,0,0.103-0.046,0.103-0.103V59.904c0-0.057-0.046-0.103-0.103-0.103H66.076C66.019,59.801,65.973,59.848,65.973,59.904z"
						/>
				</g>
			</g>
		</g>
		<g>
			<g>
				<g>
					<path style="fill:#EBEBEB;" d="M129.964,151.812H83.961c-0.036,0-0.064-0.029-0.064-0.064V97.806
						c0-0.035,0.029-0.064,0.064-0.064h46.003c0.035,0,0.064,0.029,0.064,0.064v53.941
						C130.028,151.783,129.999,151.812,129.964,151.812z"/>
				</g>
			</g>
		</g>
		<g>
			<g>
				<g>
					<g>
						<path style="fill:#E0E0E0;" d="M126.376,145.194c0.059,0.174-2.217,1.171-6.549,0.663c-2.133-0.29-4.788-1.057-7.363-2.943
							c-2.519-1.887-4.911-4.93-5.721-8.997c-0.841-4.036,0.508-9.066,4.375-12.3c0.961-0.802,2.078-1.479,3.317-1.944
							c1.317-0.489,2.738-0.65,4.15-0.478c1.404,0.171,2.891,0.66,4.149,1.812c1.271,1.153,1.967,3.1,1.636,4.834
							c-0.3,1.749-1.254,3.09-2.278,4.149c-1.057,1.079-2.254,1.877-3.475,2.56c-2.481,1.37-5.318,2.229-8.291,2.368
							c-2.96,0.142-6.089-0.466-8.835-2.011c-2.721-1.528-5.047-3.844-6.502-6.74c-1.475-2.861-1.944-6.334-1.166-9.439
							c0.748-3.094,2.506-5.86,4.975-7.777c1.239-0.96,2.64-1.669,4.171-2.106c1.541-0.395,3.129-0.469,4.696-0.146
							c1.55,0.326,3.134,1.088,4.262,2.404c1.144,1.305,1.655,3.008,1.67,4.554c0.024,1.554-0.399,3.07-1.112,4.339
							c-0.699,1.272-1.64,2.304-2.631,3.162c-1.996,1.689-4.236,2.801-6.535,3.472c-2.298,0.661-4.655,0.835-6.875,0.531
							c-2.214-0.313-4.298-1.127-5.983-2.292c-3.4-2.307-5.365-5.813-5.715-9.052c-0.385-3.298,0.822-6.003,2.117-7.761
							c1.333-1.792,2.864-2.709,3.916-3.129c1.077-0.408,1.691-0.394,1.718-0.291c0.045,0.147-0.488,0.384-1.362,0.968
							c-0.855,0.594-2.065,1.596-3.045,3.273c-0.958,1.645-1.748,4.031-1.247,6.629c0.456,2.589,2.226,5.371,5.081,7.116
							c2.795,1.776,6.716,2.233,10.482,0.998c1.866-0.602,3.725-1.608,5.245-2.967c1.508-1.353,2.535-3.094,2.45-4.915
							c-0.048-1.826-1.199-3.114-3.158-3.488c-0.954-0.186-2.025-0.126-3.016,0.142c-0.984,0.301-1.984,0.803-2.846,1.491
							c-1.741,1.369-3.058,3.448-3.588,5.719c-0.546,2.269-0.22,4.674,0.881,6.855c1.084,2.175,2.891,3.987,4.963,5.16
							c2.063,1.176,4.466,1.677,6.829,1.589c2.367-0.085,4.689-0.753,6.716-1.836c1.025-0.553,1.968-1.177,2.68-1.889
							c0.73-0.713,1.237-1.528,1.36-2.216c0.133-0.697-0.079-1.302-0.55-1.783c-0.495-0.49-1.335-0.86-2.221-0.978
							c-0.891-0.136-1.812-0.051-2.615,0.222c-0.882,0.302-1.705,0.763-2.437,1.335c-1.464,1.147-2.563,2.718-3.178,4.378
							c-0.626,1.664-0.773,3.386-0.535,5.028c0.488,3.299,2.345,6.029,4.395,7.787c2.09,1.768,4.398,2.678,6.319,3.153
							C124.004,145.314,126.346,144.865,126.376,145.194z"/>
					</g>
				</g>
			</g>
		</g>
	</g>
	<g>
		<g>
			<g>
				<g>
					<g>
						<g>
							<g>
								<g>
									<g>
										<g>
											<rect x="620.282" y="61.732" style="fill:#E0E0E0;" width="81.664" height="85.128"/>
										</g>
									</g>
								</g>
							</g>
						</g>
					</g>
				</g>
			</g>
		</g>
		<g>
			<g>
				<g>
					<g>
						<g>
							<g>
								<g>
									<g>
										<g>
											<rect x="614.752" y="61.732" style="fill:#FAFAFA;" width="81.663" height="85.128"/>
										</g>
									</g>
								</g>
							</g>
						</g>
					</g>
				</g>
			</g>
			<g>
				<g>
					<g>
						<g>
							<g>
								<g>
									<g>
										<g>
											<path style="fill:#E0E0E0;" d="M696.441,146.885h-81.714V61.707h81.714V146.885z M614.777,146.835h81.613V61.758h-81.613
												V146.835z"/>
										</g>
									</g>
								</g>
							</g>
						</g>
					</g>
				</g>
			</g>
		</g>
		<g>
			<g>
				<g>
					<g>
						<g>
							<g>
								<g>
									<g>
										<g>
											<rect x="625.729" y="73.176" style="fill:#FFFFFF;" width="59.708" height="62.24"/>
										</g>
									</g>
								</g>
							</g>
						</g>
					</g>
				</g>
			</g>
		</g>
		<g>
			<g>
				<g>
					<g>
						<g>
							<g>
								<g>
									<g>
										<g>
											<g>
												<path style="fill:#E0E0E0;" d="M625.729,135.83c0.047,0.056-0.52,0.707-1.473,1.713
													c-0.953,1.006-2.294,2.368-3.795,3.848c-1.503,1.48-2.883,2.798-3.901,3.734c-1.018,0.936-1.674,1.489-1.726,1.437
													c-0.051-0.052,0.512-0.7,1.466-1.706c0.954-1.006,2.297-2.372,3.804-3.855c1.506-1.484,2.89-2.805,3.908-3.74
													C625.03,136.325,625.682,135.775,625.729,135.83z"/>
											</g>
										</g>
									</g>
								</g>
							</g>
						</g>
					</g>
				</g>
			</g>
		</g>
		<g>
			<g>
				<g>
					<g>
						<g>
							<g>
								<g>
									<g>
										<g>
											<g>
												<path style="fill:#E0E0E0;" d="M685.437,135.678c0.056-0.047,0.707,0.52,1.713,1.473
													c1.006,0.954,2.368,2.294,3.848,3.796c1.48,1.502,2.798,2.883,3.734,3.901c0.936,1.018,1.489,1.674,1.437,1.726
													c-0.052,0.051-0.7-0.512-1.706-1.465c-1.006-0.954-2.372-2.297-3.855-3.804c-1.483-1.506-2.805-2.89-3.74-3.908
													C685.932,136.377,685.382,135.725,685.437,135.678z"/>
											</g>
										</g>
									</g>
								</g>
							</g>
						</g>
					</g>
				</g>
			</g>
		</g>
		<g>
			<g>
				<g>
					<g>
						<g>
							<g>
								<g>
									<g>
										<g>
											<g>
												<path style="fill:#E0E0E0;" d="M685.274,73.342c-0.047-0.056,0.52-0.707,1.473-1.713
													c0.953-1.006,2.293-2.368,3.796-3.847c1.502-1.48,2.883-2.798,3.901-3.734c1.018-0.936,1.674-1.489,1.726-1.437
													c0.051,0.052-0.512,0.7-1.466,1.706c-0.954,1.006-2.297,2.371-3.804,3.855c-1.506,1.484-2.89,2.805-3.908,3.741
													C685.974,72.848,685.321,73.398,685.274,73.342z"/>
											</g>
										</g>
									</g>
								</g>
							</g>
						</g>
					</g>
				</g>
			</g>
		</g>
		<g>
			<g>
				<g>
					<g>
						<g>
							<g>
								<g>
									<g>
										<g>
											<g>
												<path style="fill:#E0E0E0;" d="M625.566,73.495c-0.056,0.047-0.707-0.52-1.713-1.473
													c-1.006-0.953-2.368-2.294-3.848-3.796c-1.48-1.503-2.798-2.883-3.734-3.901c-0.936-1.018-1.489-1.674-1.437-1.725
													c0.052-0.052,0.699,0.511,1.706,1.465c1.006,0.953,2.371,2.297,3.855,3.804c1.484,1.506,2.805,2.89,3.74,3.908
													C625.072,72.795,625.622,73.448,625.566,73.495z"/>
											</g>
										</g>
									</g>
								</g>
							</g>
						</g>
					</g>
				</g>
			</g>
		</g>
		<g>
			<g>
				<g>
					<g>
						<g>
							<g>
								<g>
									<g>
										<g>
											<g>
												<path style="fill:#E0E0E0;" d="M685.274,135.416c-0.004-0.004-0.009-0.106-0.013-0.302
													c-0.003-0.212-0.008-0.498-0.013-0.869c-0.007-0.78-0.015-1.903-0.027-3.36c-0.014-2.948-0.034-7.238-0.06-12.685
													c-0.028-10.901-0.069-26.43-0.117-45.024l0.23,0.23c-17.382,0.01-37.794,0.022-59.539,0.034h-0.006l0.264-0.264
													c-0.014,22.845-0.027,44.216-0.037,62.24l-0.227-0.227c17.843,0.048,32.698,0.088,43.114,0.116
													c5.204,0.025,9.297,0.046,12.11,0.059c1.39,0.012,2.459,0.02,3.204,0.026c0.352,0.005,0.625,0.01,0.828,0.013
													C685.173,135.408,685.27,135.412,685.274,135.416c0.004,0.004-0.084,0.009-0.263,0.013
													c-0.197,0.003-0.461,0.007-0.804,0.013c-0.735,0.006-1.79,0.015-3.161,0.026c-2.801,0.014-6.877,0.034-12.059,0.059
													c-10.45,0.028-25.356,0.068-43.258,0.116l-0.227,0.001l0-0.228c-0.011-18.024-0.024-39.395-0.037-62.24l0-0.264h0.265
													h0.006c21.744,0.012,42.157,0.024,59.539,0.034h0.231l0,0.23c-0.049,18.655-0.089,34.235-0.117,45.172
													c-0.026,5.425-0.047,9.697-0.061,12.633c-0.012,1.438-0.021,2.546-0.027,3.315c-0.006,0.36-0.01,0.638-0.013,0.844
													C685.283,135.328,685.279,135.421,685.274,135.416z"/>
											</g>
										</g>
									</g>
								</g>
							</g>
						</g>
					</g>
				</g>
			</g>
		</g>
		<g>
			<g>
				<g>
					<g>
						<g>
							<g>
								<g>
									<g>
										<g>
											<rect x="645.622" y="94.335" style="fill:#EBEBEB;" width="19.924" height="19.924"/>
										</g>
									</g>
								</g>
							</g>
						</g>
					</g>
				</g>
			</g>
		</g>
	</g>
	<g>
		<g>
			<g>
				<g>
					<g>
						<g>
							<g>
								<g>
									<g>
										<g>
											<rect x="620.282" y="176.625" style="fill:#E0E0E0;" width="81.664" height="85.128"/>
										</g>
									</g>
								</g>
							</g>
						</g>
					</g>
				</g>
			</g>
		</g>
		<g>
			<g>
				<g>
					<g>
						<g>
							<g>
								<g>
									<g>
										<g>
											<rect x="614.752" y="176.625" style="fill:#FAFAFA;" width="81.663" height="85.128"/>
										</g>
									</g>
								</g>
							</g>
						</g>
					</g>
				</g>
			</g>
			<g>
				<g>
					<g>
						<g>
							<g>
								<g>
									<g>
										<g>
											<path style="fill:#E0E0E0;" d="M696.441,261.778h-81.714V176.6h81.714V261.778z M614.777,261.727h81.613V176.65h-81.613
												V261.727z"/>
										</g>
									</g>
								</g>
							</g>
						</g>
					</g>
				</g>
			</g>
		</g>
		<g>
			<g>
				<g>
					<g>
						<g>
							<g>
								<g>
									<g>
										<g>
											<rect x="625.729" y="188.069" style="fill:#FFFFFF;" width="59.708" height="62.24"/>
										</g>
									</g>
								</g>
							</g>
						</g>
					</g>
				</g>
			</g>
		</g>
		<g>
			<g>
				<g>
					<g>
						<g>
							<g>
								<g>
									<g>
										<g>
											<g>
												<path style="fill:#E0E0E0;" d="M625.729,250.723c0.047,0.056-0.52,0.707-1.473,1.713
													c-0.953,1.006-2.294,2.368-3.795,3.848c-1.503,1.48-2.883,2.798-3.901,3.734c-1.018,0.936-1.674,1.489-1.726,1.437
													c-0.051-0.052,0.512-0.7,1.466-1.706c0.954-1.006,2.297-2.371,3.804-3.855c1.506-1.484,2.89-2.805,3.908-3.741
													C625.03,251.217,625.682,250.667,625.729,250.723z"/>
											</g>
										</g>
									</g>
								</g>
							</g>
						</g>
					</g>
				</g>
			</g>
		</g>
		<g>
			<g>
				<g>
					<g>
						<g>
							<g>
								<g>
									<g>
										<g>
											<g>
												<path style="fill:#E0E0E0;" d="M685.437,250.57c0.056-0.047,0.707,0.52,1.713,1.473
													c1.006,0.954,2.368,2.294,3.848,3.796c1.48,1.503,2.798,2.883,3.734,3.901c0.936,1.018,1.489,1.674,1.437,1.726
													c-0.052,0.051-0.7-0.512-1.706-1.465c-1.006-0.954-2.372-2.297-3.855-3.804c-1.483-1.506-2.805-2.89-3.74-3.908
													C685.932,251.27,685.382,250.617,685.437,250.57z"/>
											</g>
										</g>
									</g>
								</g>
							</g>
						</g>
					</g>
				</g>
			</g>
		</g>
		<g>
			<g>
				<g>
					<g>
						<g>
							<g>
								<g>
									<g>
										<g>
											<g>
												<path style="fill:#E0E0E0;" d="M685.274,188.235c-0.047-0.056,0.52-0.707,1.473-1.713
													c0.953-1.006,2.293-2.368,3.796-3.848c1.502-1.48,2.883-2.798,3.901-3.734c1.018-0.936,1.674-1.489,1.726-1.437
													c0.051,0.052-0.512,0.7-1.466,1.706c-0.954,1.006-2.297,2.371-3.804,3.855c-1.506,1.484-2.89,2.805-3.908,3.741
													C685.974,187.74,685.321,188.291,685.274,188.235z"/>
											</g>
										</g>
									</g>
								</g>
							</g>
						</g>
					</g>
				</g>
			</g>
		</g>
		<g>
			<g>
				<g>
					<g>
						<g>
							<g>
								<g>
									<g>
										<g>
											<g>
												<path style="fill:#E0E0E0;" d="M625.566,188.388c-0.056,0.047-0.707-0.52-1.713-1.473
													c-1.006-0.953-2.368-2.294-3.848-3.795c-1.48-1.503-2.798-2.883-3.734-3.901c-0.936-1.018-1.489-1.674-1.437-1.725
													c0.052-0.052,0.699,0.511,1.706,1.465c1.006,0.954,2.371,2.297,3.855,3.804c1.484,1.506,2.805,2.89,3.74,3.908
													C625.072,187.688,625.622,188.34,625.566,188.388z"/>
											</g>
										</g>
									</g>
								</g>
							</g>
						</g>
					</g>
				</g>
			</g>
		</g>
		<g>
			<g>
				<g>
					<g>
						<g>
							<g>
								<g>
									<g>
										<g>
											<g>
												<path style="fill:#E0E0E0;" d="M685.274,250.309c-0.004-0.004-0.009-0.106-0.013-0.302
													c-0.003-0.212-0.008-0.498-0.013-0.868c-0.007-0.78-0.015-1.903-0.027-3.36c-0.014-2.949-0.034-7.238-0.06-12.685
													c-0.028-10.901-0.069-26.43-0.117-45.024l0.23,0.23c-17.382,0.01-37.794,0.021-59.539,0.034h-0.006l0.264-0.264
													c-0.014,22.845-0.027,44.216-0.037,62.24l-0.227-0.227c17.843,0.048,32.698,0.088,43.114,0.116
													c5.204,0.025,9.297,0.046,12.11,0.059c1.39,0.012,2.459,0.02,3.204,0.026c0.352,0.005,0.625,0.01,0.828,0.013
													C685.173,250.301,685.27,250.305,685.274,250.309c0.004,0.004-0.084,0.009-0.263,0.013
													c-0.197,0.003-0.461,0.007-0.804,0.013c-0.735,0.006-1.79,0.015-3.161,0.026c-2.801,0.014-6.877,0.034-12.059,0.059
													c-10.45,0.028-25.356,0.068-43.258,0.116l-0.227,0.001l0-0.228c-0.011-18.024-0.024-39.395-0.037-62.24l0-0.264h0.265
													h0.006c21.744,0.012,42.157,0.024,59.539,0.034h0.231l0,0.23c-0.049,18.655-0.089,34.235-0.117,45.172
													c-0.026,5.425-0.047,9.697-0.061,12.633c-0.012,1.438-0.021,2.545-0.027,3.315c-0.006,0.36-0.01,0.638-0.013,0.844
													C685.283,250.221,685.279,250.314,685.274,250.309z"/>
											</g>
										</g>
									</g>
								</g>
							</g>
						</g>
					</g>
				</g>
			</g>
		</g>
		<g>
			<g>
				<g>
					<g>
						<g>
							<g>
								<g>
									<g>
										<g>
											<rect x="645.622" y="209.227" style="fill:#EBEBEB;" width="19.924" height="19.924"/>
										</g>
									</g>
								</g>
							</g>
						</g>
					</g>
				</g>
			</g>
		</g>
	</g>
	<g>
		<g>
			<g>
				<g>
					<g>
						<g>
							<g>
								<g>
									<g>
										<path style="fill:#EBEBEB;" d="M508.372,120.626c-0.902,28.064-24.436,50.082-52.565,49.181
											c-3.049-0.098-6.027-0.461-8.912-1.067c-23.732-4.981-41.192-26.361-40.388-51.384
											c0.9-28.064,24.434-50.082,52.563-49.179C487.2,69.079,509.273,92.562,508.372,120.626z"/>
									</g>
								</g>
							</g>
						</g>
						<g>
							<g>
								<g>
									<g>
										<path style="fill:#EBEBEB;" d="M497.637,120.808c-0.687,21.385-18.621,38.165-40.058,37.477
											c-21.435-0.688-38.257-18.584-37.57-39.969c0.688-21.387,18.622-38.167,40.057-37.478
											C481.502,81.527,498.323,99.421,497.637,120.808z"/>
									</g>
								</g>
							</g>
						</g>
					</g>
					<g>
						<g>
							<g>
								<g>
									<g>
										<path style="fill:#E0E0E0;" d="M496.253,120.237c-0.014,0-0.032-0.214-0.053-0.63c-0.018-0.454-0.043-1.064-0.075-1.843
											c-0.013-0.409-0.028-0.861-0.045-1.356c-0.04-0.497-0.13-1.038-0.202-1.625c-0.151-1.173-0.29-2.532-0.694-4.018
											c-0.598-3.009-1.893-6.582-3.993-10.387c-2.116-3.79-5.211-7.774-9.48-11.205c-4.256-3.399-9.664-6.346-15.969-7.663
											c-6.263-1.278-13.375-1.311-20.228,1.037c-1.74,0.496-3.388,1.292-5.078,2.037c-0.826,0.41-1.619,0.899-2.438,1.348
											c-0.832,0.429-1.601,0.968-2.369,1.518c-1.595,1.02-3.006,2.312-4.477,3.555c-1.338,1.385-2.743,2.737-3.909,4.322
											c-2.392,3.093-4.501,6.552-5.837,10.386c-1.378,3.809-2.186,7.877-2.375,12.038c-0.079,4.165,0.464,8.278,1.595,12.17
											c1.086,3.914,2.97,7.501,5.158,10.742c1.062,1.657,2.377,3.096,3.624,4.565c1.389,1.335,2.713,2.715,4.24,3.835
											c1.431,1.239,3.066,2.169,4.614,3.17c1.639,0.852,3.233,1.752,4.938,2.359c6.689,2.783,13.789,3.206,20.122,2.332
											c6.377-0.911,11.963-3.505,16.428-6.624c4.48-3.15,7.823-6.927,10.178-10.574c2.339-3.662,3.861-7.145,4.65-10.109
											c0.498-1.456,0.724-2.803,0.95-3.964c0.108-0.581,0.234-1.114,0.305-1.608c0.048-0.493,0.092-0.943,0.132-1.35
											c0.081-0.775,0.145-1.382,0.192-1.834C496.208,120.449,496.239,120.237,496.253,120.237c0.014,0,0.01,0.213-0.01,0.629
											c-0.028,0.455-0.065,1.066-0.112,1.845c-0.028,0.41-0.059,0.864-0.093,1.361c-0.059,0.498-0.172,1.036-0.269,1.623
											c-0.202,1.173-0.405,2.535-0.883,4.01c-0.749,3.001-2.242,6.538-4.572,10.267c-2.346,3.713-5.702,7.57-10.228,10.797
											c-4.51,3.196-10.175,5.865-16.66,6.822c-6.439,0.92-13.672,0.514-20.502-2.303c-1.74-0.615-3.369-1.526-5.042-2.393
											c-1.582-1.015-3.251-1.963-4.714-3.222c-1.56-1.141-2.915-2.545-4.333-3.906c-1.276-1.495-2.619-2.964-3.707-4.652
											c-2.239-3.305-4.164-6.968-5.278-10.964c-1.158-3.973-1.714-8.175-1.632-12.428c0.192-4.248,1.018-8.403,2.429-12.293
											c1.368-3.915,3.523-7.445,5.97-10.599c1.193-1.615,2.628-2.994,3.997-4.404c1.503-1.267,2.945-2.581,4.574-3.619
											c0.785-0.559,1.571-1.107,2.42-1.544c0.836-0.457,1.646-0.953,2.49-1.369c1.725-0.757,3.409-1.562,5.184-2.064
											c6.995-2.373,14.239-2.314,20.605-0.983c6.41,1.371,11.892,4.397,16.187,7.876c4.309,3.511,7.412,7.575,9.515,11.431
											c2.086,3.872,3.349,7.497,3.904,10.541c0.383,1.503,0.498,2.875,0.625,4.059c0.059,0.592,0.137,1.137,0.164,1.637
											c0.002,0.498,0.004,0.953,0.005,1.364c-0.003,0.781-0.005,1.394-0.006,1.849
											C496.277,120.025,496.267,120.238,496.253,120.237z"/>
									</g>
								</g>
							</g>
						</g>
					</g>
				</g>
				<g>
					<g>
						<g>
							<g>
								<g>
									<g>
										<path style="fill:#E0E0E0;" d="M461.086,142.283l-0.119,6.764l-6.038-0.108l0.116-6.581
											c-5.972-0.469-11.675-2.44-14.95-5.096l3.45-7.309c2.981,2.289,7.299,3.995,11.641,4.495l0.177-10.086
											c-6.674-1.747-14.122-4.114-13.969-12.75c0.113-6.401,4.86-11.814,14.419-12.731l0.119-6.704l6.039,0.106l-0.117,6.583
											c4.522,0.442,8.909,1.727,12.192,3.899l-3.149,7.375c-3.049-1.805-6.171-2.887-9.184-3.305l-0.181,10.267
											c6.675,1.687,14.003,4.053,13.852,12.566C475.273,135.949,470.587,141.303,461.086,142.283z M455.52,115.484l0.15-8.574
											c-3.212,0.668-4.511,2.397-4.547,4.39C451.087,113.413,452.878,114.594,455.52,115.484z M465.65,130.222
											c0.037-2.115-1.694-3.292-4.275-4.245l-0.147,8.334C464.26,133.701,465.616,132.154,465.65,130.222z"/>
									</g>
								</g>
							</g>
						</g>
					</g>
				</g>
			</g>
			<g>
				<g>
					<path style="fill:#F5F5F5;" d="M505.807,166.342c-17.992,16.434-43.656,22.419-67.075,15.571
						c-19.248-5.628-35.749-19.764-43.403-38.42c-7.786-18.976-5.665-40.868,5.373-58.105
						c11.103-17.338,30.322-28.684,50.755-30.658c25.678-2.481,51.063,9.263,65.121,30.992c2.09,3.231,7.287,0.226,5.181-3.028
						c-13.537-20.922-36.733-33.758-61.658-34.282c-22.667-0.477-45.157,9.409-59.548,27.04
						c-14.249,17.458-19.495,41.041-13.344,62.816c6.055,21.436,22.417,38.681,42.927,46.993
						c27.023,10.951,58.485,4.897,79.914-14.676C512.907,167.975,508.654,163.742,505.807,166.342L505.807,166.342z"/>
				</g>
			</g>
		</g>
		<g>
			<polygon style="fill:#F5F5F5;" points="500.253,83.742 524.697,67.282 524.697,92.175 			"/>
		</g>
	</g>
</g>
<g id="Background_Simple" style="display:none;">
	<path style="display:inline;fill:#F5F5F5;" d="M689.265,72.1l-1.516-2.499c-12.785-21.068-35.899-33.768-60.27-32.227
		c-3.133,0.198-6.252,0.622-9.329,1.281c-22.158,4.743-41.438,21.499-49.429,42.959c-4.7,12.621-6.013,27.152-14.932,37.17
		c-11.608,13.038-31.314,13.447-48.641,12.907c-17.326-0.54-37.046-0.079-48.597,13.01c-7.234,8.197-9.534,19.855-8.95,30.833
		c1.544,29.065,21.797,55.053,47.554,67.97c25.756,12.917,56.082,14.074,84.271,8.392c39.489-7.96,77.043-29.821,99.616-63.586
		S707.326,108.543,689.265,72.1z"/>
	<circle style="display:inline;fill:#F5F5F5;" cx="105.04" cy="112.801" r="49.159"/>
</g>
<g id="Floor">
	<g>
		<g>
			<path style="fill:#263238;" d="M691.738,469.793c0,0.144-143.611,0.26-320.722,0.26c-177.173,0-320.753-0.117-320.753-0.26
				s143.58-0.26,320.753-0.26C548.127,469.533,691.738,469.649,691.738,469.793z"/>
		</g>
	</g>
</g>
<g id="Arrow">
	<g>
		<g>
			<path style="fill:#FF725E;" d="M407.291,204.363c0,0,36.654,9.653,48.243,48.31l-15.582,6.91c0,0-3.569-26.893-39.886-38.605
				c-19.647-6.336-45.662,2.606-52.869,10.797l-17.485-7.542C341.447,211.365,370.304,194.282,407.291,204.363z"/>
		</g>
		<g>
			<polygon style="fill:#FF725E;" points="465.498,242.925 426.76,255.78 456.489,270.682 			"/>
		</g>
	</g>
</g>
<g id="Device">
	<g>
		<g>
			<g>
				<g>
					<g>
						<g>
							<g>
								<g>
									<g>
										<g>
											<g>
												<g>
													<g>
														<g>
															<g>
																<g>
																	<path style="fill:#263238;" d="M361.57,469.793l-137-0.085c-16.477-0.009-29.828-14.052-29.825-31.367
																		l0.067-360.946c0.003-17.326,13.374-31.366,29.86-31.356l137.001,0.085c16.477,0.01,29.828,14.053,29.825,31.368
																		l-0.067,360.947C391.427,455.763,378.056,469.803,361.57,469.793z"/>
																</g>
															</g>
														</g>
													</g>
												</g>
											</g>
										</g>
									</g>
									<g>
										<g>
											<g>
												<g>
													<g>
														<g>
															<g>
																<g>
																	<path style="fill:#FFFFFF;" d="M361.527,58.889l-26.562-0.016c-3.562-0.002-6.451,3.169-6.451,7.082l-0.002,5.064
																		c0,3.913-2.889,7.084-6.45,7.082l-51.775-0.032c-3.562-0.002-6.449-3.177-6.449-7.09l0.001-5.063
																		c0-3.913-2.887-7.088-6.449-7.09l-9.342-0.006L224.8,58.805c-11.546-0.007-20.91,9.826-20.912,21.96
																		l-0.066,352.309c-0.002,12.129,9.348,21.962,20.888,21.97l136.727,0.084c11.545,0.007,20.909-9.826,20.912-21.96
																		l0.066-352.311C382.417,68.73,373.067,58.896,361.527,58.889z"/>
																</g>
															</g>
														</g>
													</g>
												</g>
											</g>
										</g>
									</g>
								</g>
							</g>
						</g>
					</g>
				</g>
			</g>
			<g>
				<g>
					<g>
						<g>
							<g>
								<path style="fill:#E0E0E0;" d="M232.769,427.26v10.34c0,0.897-0.987,1.441-1.743,0.96l-8.128-5.17
									c-0.702-0.447-0.702-1.474,0-1.921l8.128-5.17C231.782,425.819,232.769,426.363,232.769,427.26z"/>
							</g>
						</g>
					</g>
				</g>
				<g>
					<g>
						<g>
							<g>
								<path style="fill:#E0E0E0;" d="M299.56,432.334c0,3.945-3.191,7.142-7.126,7.142c-3.936,0-7.126-3.198-7.126-7.142
									c0-3.945,3.191-7.142,7.126-7.142C296.369,425.191,299.56,428.389,299.56,432.334z"/>
							</g>
						</g>
					</g>
				</g>
				<g>
					<g>
						<g>
							<g>
								<path style="fill:#E0E0E0;" d="M362.001,439.299h-9.409c-1.033,0-1.87-0.837-1.87-1.87v-9.439c0-1.033,0.837-1.87,1.87-1.87
									h9.409c1.033,0,1.87,0.837,1.87,1.87v9.439C363.87,438.462,363.033,439.299,362.001,439.299z"/>
							</g>
						</g>
					</g>
				</g>
			</g>
		</g>
		<g>
			<g>
				<g>
					<g>
						<g>
							<path style="fill:#263238;" d="M253.516,186.12c3.662,0,7.324,0,10.986,0c-0.713-0.543-1.426-1.086-2.139-1.629
								c1.621,5.335,3.242,10.669,4.863,16.004c2.572,8.464,5.144,16.927,7.716,25.391c0.593,1.953,1.187,3.905,1.78,5.858
								c0.284,0.934,1.146,1.631,2.139,1.628c10.487-0.029,20.974-0.058,31.461-0.087c1.502-0.004,3.003-0.008,4.505-0.012
								c2.854-0.008,2.86-4.445,0-4.437c-10.487,0.029-20.974,0.058-31.461,0.087c-1.502,0.004-3.003,0.008-4.505,0.012
								c0.713,0.543,1.426,1.086,2.139,1.629c-1.621-5.335-3.242-10.669-4.863-16.004c-2.572-8.464-5.144-16.927-7.716-25.391
								c-0.593-1.953-1.187-3.905-1.78-5.858c-0.285-0.936-1.146-1.628-2.139-1.628c-3.662,0-7.324,0-10.986,0
								C250.661,181.683,250.656,186.12,253.516,186.12L253.516,186.12z"/>
						</g>
					</g>
					<g>
						<g>
							<path style="fill:#263238;" d="M321.859,191.765c-2.072,9.281-4.143,18.563-6.215,27.844
								c-0.298,1.334-0.596,2.668-0.893,4.003c0.535-0.407,1.07-0.814,1.604-1.221c-4.49-0.044-8.979-0.088-13.469-0.132
								c-7.2-0.071-14.399-0.141-21.599-0.212c-1.646-0.016-3.293-0.032-4.939-0.048c0.535,0.407,1.069,0.814,1.604,1.221
								c-2.888-9.188-5.776-18.377-8.664-27.565c-0.407-1.296-0.815-2.592-1.222-3.889c-0.535,0.702-1.07,1.404-1.604,2.106
								c6.448,0,12.896,0,19.344,0c10.194,0,20.388,0,30.582,0c2.358,0,4.716,0,7.075,0c2.141,0,2.145-3.327,0-3.327
								c-6.448,0-12.896,0-19.344,0c-10.194,0-20.388,0-30.582,0c-2.358,0-4.716,0-7.075,0c-1.049,0-1.931,1.067-1.604,2.106
								c2.888,9.188,5.776,18.377,8.664,27.565c0.407,1.296,0.815,2.592,1.222,3.889c0.222,0.707,0.853,1.214,1.604,1.221
								c4.49,0.044,8.979,0.088,13.469,0.132c7.199,0.071,14.399,0.141,21.599,0.212c1.646,0.016,3.293,0.032,4.939,0.048
								c0.699,0.007,1.447-0.519,1.604-1.221c2.072-9.281,4.143-18.563,6.215-27.844c0.298-1.334,0.596-2.668,0.893-4.002
								C325.533,190.564,322.326,189.673,321.859,191.765z"/>
						</g>
					</g>
					<g>
						<g>
							<path style="fill:#263238;" d="M277.801,193.188c1.751,10.154,3.976,20.219,5.727,30.373c0.363,2.106,3.57,1.213,3.208-0.884
								c-1.751-10.154-3.976-20.219-5.727-30.374C280.647,190.197,277.439,191.09,277.801,193.188L277.801,193.188z"/>
						</g>
					</g>
					<g>
						<g>
							<path style="fill:#263238;" d="M295.372,192.746c0.168,10.412,0.361,20.823,0.529,31.235c0.034,2.139,3.362,2.146,3.327,0
								c-0.168-10.412-0.361-20.823-0.529-31.235C298.665,190.607,295.338,190.6,295.372,192.746L295.372,192.746z"/>
						</g>
					</g>
					<g>
						<g>
							<path style="fill:#263238;" d="M311.601,224.358c1.408-9.247,2.816-18.493,4.225-27.74c0.202-1.323,0.403-2.645,0.604-3.968
								c0.136-0.895-0.226-1.779-1.162-2.047c-0.785-0.225-1.911,0.275-2.047,1.162c-1.408,9.247-2.816,18.493-4.225,27.74
								c-0.201,1.323-0.403,2.645-0.604,3.968c-0.136,0.894,0.226,1.779,1.162,2.047
								C310.34,225.745,311.466,225.246,311.601,224.358L311.601,224.358z"/>
						</g>
					</g>
					<g>
						<g>
							<path style="fill:#263238;" d="M270.087,203.612c16.777,0,33.553,0,50.33,0c2.141,0,2.145-3.327,0-3.327
								c-16.777,0-33.554,0-50.33,0C267.946,200.285,267.943,203.612,270.087,203.612L270.087,203.612z"/>
						</g>
					</g>
					<g>
						<g>
							<path style="fill:#263238;" d="M274.806,215.294c14.53,0,29.059,0,43.588,0c2.141,0,2.145-3.327,0-3.327
								c-14.53,0-29.059,0-43.588,0C272.665,211.967,272.661,215.294,274.806,215.294L274.806,215.294z"/>
						</g>
					</g>
					<g>
						<circle style="fill:#263238;" cx="314.826" cy="242.052" r="5.92"/>
					</g>
					<g>
						<circle style="fill:#263238;" cx="282.269" cy="242.052" r="5.92"/>
					</g>
				</g>
			</g>
			<g>
				<path style="fill:#FF725E;" d="M270.923,162.323c0,0-24.357-0.823-38.632,20.846l8.321,7.133c0,0,7.164-15.904,31.693-16.411
					c13.27-0.275,22.4,7.464,25.326,13.839l15.053-0.258C307.834,177.378,295.564,162.943,270.923,162.323z"/>
			</g>
			<g>
				<polygon style="fill:#FF725E;" points="229.072,176.112 250.557,191.182 231.04,195.136 				"/>
			</g>
		</g>
		<g>
			<g>
				<path style="fill:#263238;" d="M371.356,95.994c0,1.335-1.082,2.417-2.417,2.417c-1.335,0-2.417-1.082-2.417-2.417
					c0-1.335,1.082-2.417,2.417-2.417C370.274,93.577,371.356,94.659,371.356,95.994z"/>
			</g>
			<g>
				<circle style="fill:#263238;" cx="368.939" cy="102.606" r="2.417"/>
			</g>
			<g>
				<circle style="fill:#263238;" cx="368.939" cy="109.218" r="2.417"/>
			</g>
		</g>
		<g>
			<polygon style="fill:#263238;" points="224.835,94.851 214.969,102.248 217.483,102.248 217.483,111.092 222.802,111.111 
				222.802,104.493 226.995,104.475 226.995,111.092 232.14,111.092 232.14,102.16 234.702,102.133 			"/>
		</g>
		<g>
			<g>
				<path style="fill:#E0E0E0;" d="M383.051,120.409c0,0.144-40.267,0.261-89.927,0.261c-49.678,0-89.936-0.117-89.936-0.261
					c0-0.144,40.258-0.26,89.936-0.26C342.784,120.149,383.051,120.265,383.051,120.409z"/>
			</g>
		</g>
		<g>
			<g>
				<path style="fill:#E0E0E0;" d="M291.222,385.337h-1.604c-5.411,0-9.797-4.387-9.797-9.798v-78.848
					c0-5.411,4.387-9.798,9.797-9.798h1.604c5.411,0,9.798,4.387,9.798,9.798v78.848
					C301.019,380.951,296.633,385.337,291.222,385.337z"/>
			</g>
			<g>
				<g>
					<g>
						<g>
							<g>
								<g>
									<g>
										<path style="fill:#FF725E;" d="M331.698,338.447c0.023,18.829-15.257,34.111-34.129,34.135
											c-2.046,0.003-4.05-0.174-5.997-0.516c-16.016-2.808-28.196-16.746-28.216-33.534
											c-0.024-18.829,15.256-34.111,34.128-34.134C316.356,304.375,331.674,319.619,331.698,338.447z"/>
									</g>
								</g>
							</g>
						</g>
						<g>
							<g>
								<g>
									<g>
										<path style="fill:#FF725E;" d="M324.507,338.81c0.018,14.348-11.626,25.994-26.009,26.012
											c-14.381,0.018-26.055-11.599-26.072-25.947c-0.017-14.349,11.627-25.995,26.008-26.013
											C312.816,312.844,324.489,324.461,324.507,338.81z"/>
									</g>
								</g>
							</g>
						</g>
					</g>
					<g>
						<g>
							<g>
								<g>
									<g>
										<path style="fill:#263238;" d="M323.567,338.458c-0.009,0-0.026-0.142-0.05-0.421c-0.022-0.304-0.053-0.712-0.091-1.233
											c-0.018-0.274-0.038-0.576-0.06-0.908c-0.038-0.332-0.111-0.693-0.172-1.084c-0.128-0.783-0.251-1.691-0.555-2.677
											c-0.468-2.003-1.416-4.369-2.908-6.872c-1.503-2.493-3.666-5.094-6.604-7.298c-2.929-2.183-6.619-4.037-10.874-4.779
											c-4.226-0.717-8.993-0.58-13.533,1.147c-1.155,0.371-2.242,0.941-3.358,1.478c-0.545,0.293-1.065,0.639-1.604,0.958
											c-0.548,0.306-1.051,0.685-1.554,1.07c-1.046,0.719-1.962,1.617-2.921,2.482c-0.866,0.958-1.777,1.896-2.523,2.984
											c-1.534,2.126-2.87,4.492-3.679,7.091c-0.839,2.584-1.289,5.328-1.323,8.121c0.04,2.793,0.496,5.538,1.341,8.12
											c0.815,2.599,2.158,4.961,3.697,7.084c0.749,1.087,1.663,2.022,2.531,2.978c0.961,0.863,1.879,1.759,2.928,2.476
											c0.987,0.798,2.103,1.385,3.163,2.021c1.118,0.534,2.206,1.102,3.362,1.47c4.545,1.716,9.313,1.84,13.538,1.113
											c4.253-0.753,7.939-2.616,10.862-4.806c2.932-2.211,5.088-4.818,6.585-7.314c1.485-2.507,2.428-4.875,2.89-6.879
											c0.302-0.987,0.422-1.895,0.548-2.678c0.06-0.392,0.132-0.752,0.169-1.085c0.021-0.332,0.041-0.634,0.058-0.908
											c0.037-0.521,0.066-0.929,0.088-1.233C323.541,338.601,323.557,338.458,323.567,338.458c0.009,0,0.012,0.143,0.007,0.422
											c-0.008,0.305-0.02,0.716-0.034,1.239c-0.01,0.275-0.02,0.58-0.032,0.914c-0.028,0.335-0.092,0.698-0.144,1.094
											c-0.109,0.79-0.215,1.708-0.502,2.707c-0.435,2.028-1.356,4.432-2.834,6.983c-1.489,2.541-3.652,5.201-6.613,7.465
											c-2.951,2.243-6.688,4.158-11.013,4.944c-4.295,0.76-9.151,0.65-13.792-1.085c-1.18-0.373-2.292-0.947-3.433-1.491
											c-1.083-0.645-2.222-1.243-3.231-2.054c-1.071-0.73-2.01-1.64-2.991-2.521c-0.889-0.974-1.821-1.928-2.588-3.035
											c-1.574-2.165-2.947-4.577-3.782-7.23c-0.865-2.637-1.332-5.441-1.372-8.293c0.034-2.851,0.495-5.655,1.353-8.293
											c0.829-2.654,2.195-5.069,3.764-7.237c0.764-1.109,1.694-2.065,2.58-3.041c0.979-0.883,1.916-1.796,2.985-2.528
											c0.514-0.392,1.028-0.777,1.588-1.089c0.55-0.325,1.082-0.675,1.638-0.973c1.139-0.546,2.25-1.123,3.428-1.499
											c4.635-1.747,9.491-1.869,13.787-1.119c4.327,0.775,8.068,2.681,11.025,4.916c2.966,2.257,5.137,4.911,6.633,7.448
											c1.485,2.548,2.412,4.949,2.852,6.977c0.29,0.999,0.398,1.916,0.509,2.706c0.053,0.396,0.117,0.759,0.147,1.094
											c0.013,0.334,0.024,0.639,0.034,0.914c0.016,0.524,0.028,0.934,0.037,1.239
											C323.578,338.315,323.576,338.458,323.567,338.458z"/>
									</g>
								</g>
							</g>
						</g>
					</g>
				</g>
				<g>
					<g style="opacity:0.3;">
						<g>
							<g>
								<path d="M323.364,338.731c-0.156,0.006-0.268-1.137-0.686-3.131c-0.427-1.982-1.211-4.848-2.984-7.978
									c-0.885-1.558-2.011-3.174-3.42-4.728c-1.42-1.539-3.104-3.032-5.08-4.293c-0.985-0.634-2.032-1.225-3.148-1.725
									c-1.113-0.507-2.279-0.961-3.503-1.301c-1.22-0.343-2.484-0.626-3.785-0.78c-1.3-0.157-2.63-0.222-3.975-0.187
									c-1.346,0.054-2.669,0.206-3.956,0.447c-1.289,0.241-2.532,0.605-3.728,1.028c-1.199,0.42-2.334,0.951-3.411,1.529
									c-1.081,0.573-2.088,1.233-3.03,1.929c-1.89,1.389-3.475,2.99-4.791,4.619c-1.305,1.643-2.323,3.329-3.107,4.943
									c-1.565,3.239-2.162,6.15-2.46,8.156c-0.287,2.017-0.324,3.165-0.481,3.168c-0.116,0.006-0.341-1.137-0.285-3.238
									c0.069-2.086,0.469-5.172,1.954-8.671c0.744-1.742,1.751-3.576,3.084-5.371c1.344-1.782,2.993-3.54,4.991-5.073
									c0.995-0.769,2.064-1.496,3.219-2.131c1.15-0.641,2.367-1.227,3.655-1.694c1.286-0.47,2.625-0.872,4.015-1.139
									c1.388-0.269,2.817-0.436,4.267-0.493c1.451-0.039,2.886,0.034,4.288,0.211c1.404,0.175,2.766,0.489,4.08,0.873
									c1.315,0.38,2.567,0.886,3.756,1.45c1.193,0.557,2.308,1.213,3.35,1.914c2.092,1.398,3.852,3.043,5.31,4.733
									c1.444,1.703,2.57,3.467,3.425,5.156c1.709,3.393,2.309,6.447,2.513,8.524C323.631,337.573,323.479,338.728,323.364,338.731
									z"/>
							</g>
						</g>
					</g>
				</g>
				<g style="opacity:0.3;">
					<g>
						<g>
							<g>
								<g>
									<g>
										<path d="M300.491,354.019l0.072,4.536l-4.049,0.062l-0.069-4.413c-4.013-0.181-7.879-1.374-10.133-3.081l2.149-4.976
											c2.049,1.467,4.981,2.514,7.902,2.752l-0.107-6.763c-4.512-1.021-9.556-2.441-9.647-8.233
											c-0.067-4.293,2.993-8.026,9.379-8.855l-0.07-4.496l4.05-0.064l0.069,4.415c3.041,0.195,6.009,0.958,8.258,2.34
											l-1.946,5.013c-2.084-1.142-4.2-1.797-6.229-2.01l0.108,6.885c4.511,0.981,9.475,2.403,9.565,8.112
											C309.858,349.457,306.837,353.15,300.491,354.019z M296.162,336.183l-0.091-5.75c-2.138,0.519-2.97,1.708-2.949,3.044
											C293.144,334.894,294.371,335.646,296.162,336.183z M303.281,345.834c-0.023-1.418-1.209-2.168-2.96-2.75l0.088,5.589
											C302.426,348.196,303.301,347.13,303.281,345.834z"/>
									</g>
								</g>
							</g>
						</g>
					</g>
				</g>
			</g>
			<g>
				<rect x="239.605" y="290.839" style="fill:#FFFFFF;" width="39.444" height="88.162"/>
			</g>
		</g>
	</g>
</g>
<g id="Coins">
	<g>
		<g>
			<g>
				<g>
					<g>
						<g>
							<g>
								<path style="fill:#FF725E;" d="M497.937,330.737c4.392,19.629-7.996,39.11-27.669,43.513
									c-2.133,0.477-4.263,0.758-6.373,0.853c-17.353,0.788-33.287-10.921-37.203-28.423
									c-4.393-19.628,7.995-39.109,27.669-43.512C474.034,298.766,493.544,311.109,497.937,330.737z"/>
							</g>
						</g>
					</g>
				</g>
				<g>
					<g>
						<g>
							<g>
								<path style="fill:#FF725E;" d="M490.523,332.783c3.347,14.957-6.093,29.803-21.087,33.159
									c-14.992,3.355-29.86-6.051-33.207-21.008c-3.347-14.958,6.094-29.805,21.086-33.159
									C472.307,308.42,487.175,317.825,490.523,332.783z"/>
							</g>
						</g>
					</g>
				</g>
			</g>
			<g>
				<g>
					<g>
						<g>
							<g>
								<path style="fill:#263238;" d="M489.461,332.635c-0.01,0.002-0.06-0.143-0.15-0.427c-0.094-0.312-0.22-0.731-0.381-1.265
									c-0.082-0.281-0.173-0.592-0.273-0.933c-0.117-0.338-0.276-0.697-0.43-1.091c-0.315-0.787-0.654-1.705-1.199-2.663
									c-0.953-1.98-2.49-4.227-4.627-6.491c-2.146-2.251-5.005-4.461-8.579-6.078c-3.56-1.597-7.838-2.674-12.448-2.461
									c-4.573,0.233-9.512,1.482-13.846,4.336c-1.118,0.655-2.12,1.502-3.159,2.321c-0.5,0.432-0.962,0.913-1.45,1.371
									c-0.5,0.446-0.938,0.958-1.372,1.477c-0.924,0.993-1.672,2.141-2.47,3.266c-0.681,1.2-1.413,2.389-1.939,3.697
									c-1.106,2.573-1.951,5.35-2.192,8.248c-0.275,2.888-0.108,5.855,0.505,8.775c0.69,2.904,1.802,5.66,3.282,8.157
									c1.453,2.521,3.401,4.672,5.499,6.529c1.033,0.959,2.203,1.723,3.33,2.519c1.202,0.677,2.368,1.399,3.627,1.902
									c1.214,0.604,2.514,0.956,3.767,1.374c1.289,0.298,2.556,0.637,3.847,0.753c5.138,0.735,10.139-0.241,14.375-1.98
									c4.261-1.772,7.672-4.57,10.212-7.532c2.545-2.986,4.188-6.204,5.17-9.155c0.967-2.959,1.401-5.646,1.418-7.843
									c0.085-1.099,0.001-2.074-0.05-2.92c-0.029-0.423-0.037-0.815-0.076-1.17c-0.055-0.351-0.105-0.671-0.15-0.96
									c-0.082-0.552-0.146-0.984-0.194-1.307C489.467,332.79,489.451,332.637,489.461,332.635c0.01-0.002,0.045,0.146,0.105,0.438
									c0.062,0.32,0.146,0.751,0.252,1.3c0.054,0.289,0.113,0.61,0.179,0.961c0.048,0.356,0.066,0.75,0.104,1.174
									c0.069,0.85,0.172,1.831,0.104,2.94c0.017,2.216-0.386,4.936-1.336,7.94c-0.964,2.995-2.602,6.271-5.164,9.318
									c-2.557,3.023-6.009,5.887-10.337,7.711c-4.302,1.789-9.392,2.801-14.633,2.068c-1.317-0.115-2.61-0.456-3.925-0.758
									c-1.279-0.421-2.606-0.78-3.846-1.392c-1.286-0.512-2.477-1.244-3.704-1.935c-1.153-0.809-2.347-1.588-3.403-2.565
									c-2.144-1.893-4.134-4.089-5.621-6.661c-1.514-2.549-2.651-5.364-3.354-8.329c-0.626-2.981-0.796-6.011-0.513-8.961
									c0.249-2.96,1.113-5.794,2.246-8.419c0.539-1.334,1.287-2.547,1.985-3.769c0.816-1.148,1.582-2.317,2.526-3.328
									c0.444-0.528,0.892-1.049,1.403-1.503c0.498-0.466,0.971-0.955,1.482-1.395c1.061-0.834,2.086-1.693,3.227-2.358
									c4.428-2.897,9.463-4.151,14.117-4.366c4.691-0.195,9.035,0.924,12.637,2.569c3.617,1.665,6.496,3.929,8.644,6.228
									c2.139,2.313,3.663,4.602,4.593,6.614c0.534,0.974,0.859,1.906,1.159,2.704c0.147,0.4,0.298,0.764,0.406,1.106
									c0.091,0.345,0.173,0.66,0.248,0.945c0.138,0.542,0.246,0.967,0.326,1.284C489.439,332.483,489.47,332.632,489.461,332.635z
									"/>
							</g>
						</g>
					</g>
				</g>
			</g>
		</g>
		<g>
			<g style="opacity:0.3;">
				<g>
					<g>
						<path d="M489.312,332.966c-0.162,0.043-0.543-1.123-1.441-3.106c-0.905-1.968-2.388-4.775-4.963-7.626
							c-1.285-1.419-2.834-2.843-4.663-4.137c-1.838-1.275-3.94-2.441-6.293-3.298c-1.174-0.432-2.403-0.806-3.683-1.069
							c-1.278-0.27-2.6-0.474-3.954-0.544c-1.352-0.075-2.735-0.076-4.128,0.064c-1.393,0.138-2.794,0.379-4.189,0.727
							c-1.391,0.368-2.735,0.834-4.021,1.384c-1.289,0.55-2.5,1.218-3.649,1.937c-1.153,0.716-2.213,1.533-3.203,2.386
							c-0.995,0.849-1.892,1.77-2.712,2.715c-1.649,1.887-2.93,3.924-3.925,5.928c-0.979,2.016-1.65,4.011-2.093,5.875
							c-0.881,3.74-0.828,6.914-0.673,9.075c0.169,2.17,0.396,3.375,0.234,3.415c-0.119,0.033-0.62-1.106-1.049-3.31
							c-0.413-2.191-0.711-5.502,0.026-9.495c0.371-1.989,0.996-4.135,1.97-6.316c0.988-2.17,2.3-4.385,4.028-6.448
							c0.859-1.033,1.806-2.039,2.862-2.969c1.051-0.935,2.183-1.828,3.418-2.614c1.232-0.788,2.535-1.518,3.923-2.119
							c1.385-0.603,2.836-1.108,4.335-1.504c1.504-0.377,3.017-0.634,4.521-0.774c1.505-0.143,2.998-0.132,4.457-0.036
							c1.46,0.092,2.883,0.328,4.253,0.641c1.373,0.305,2.688,0.73,3.938,1.219c2.506,0.973,4.723,2.279,6.635,3.704
							c1.901,1.441,3.485,3.02,4.768,4.582c2.569,3.142,3.903,6.187,4.598,8.306C489.322,331.697,489.432,332.937,489.312,332.966z"
							/>
					</g>
				</g>
			</g>
		</g>
		<g style="opacity:0.3;">
			<g>
				<g>
					<g>
						<g>
							<g>
								<path d="M469.008,354.214l1.127,4.713l-4.208,1.004l-1.096-4.586c-4.226,0.742-8.535,0.395-11.282-0.862l1.086-5.687
									c2.477,1.055,5.777,1.466,8.878,1.037l-1.681-7.028c-4.942-0.018-10.532-0.329-11.97-6.347
									c-1.066-4.461,1.259-9.064,7.726-11.409l-1.116-4.672l4.208-1.006l1.096,4.588c3.216-0.502,6.488-0.395,9.154,0.525
									l-0.866,5.679c-2.438-0.707-4.797-0.9-6.962-0.651l1.71,7.154c4.932-0.023,10.438,0.308,11.856,6.24
									C477.717,347.285,475.424,351.836,469.008,354.214z M460.356,336.62l-1.429-5.974c-2.109,1.037-2.701,2.469-2.369,3.858
									C456.91,335.976,458.363,336.475,460.356,336.62z M470.018,345.032c-0.353-1.474-1.763-1.98-3.724-2.181l1.388,5.807
									C469.675,347.694,470.339,346.379,470.018,345.032z"/>
							</g>
						</g>
					</g>
				</g>
			</g>
		</g>
	</g>
	<g>
		<g>
			<g>
				<g>
					<g>
						<g>
							<g>
								<path style="fill:#FF725E;" d="M419.115,314.759c-9.529,20.221-33.683,28.872-53.951,19.324
									c-2.197-1.035-4.258-2.242-6.175-3.596c-15.767-11.14-21.768-32.28-13.272-50.31c9.527-20.222,33.681-28.873,53.95-19.323
									C419.935,270.403,428.642,294.537,419.115,314.759z"/>
							</g>
						</g>
					</g>
				</g>
				<g>
					<g>
						<g>
							<g>
								<path style="fill:#FF725E;" d="M411.213,311.499c-7.26,15.409-25.668,22.002-41.114,14.725
									c-15.445-7.277-22.081-25.669-14.821-41.079c7.262-15.41,25.669-22.003,41.114-14.726
									C411.838,277.698,418.473,296.089,411.213,311.499z"/>
							</g>
						</g>
					</g>
				</g>
			</g>
			<g>
				<g>
					<g>
						<g>
							<g>
								<path style="fill:#263238;" d="M410.382,310.645c-0.01-0.005,0.044-0.166,0.16-0.477c0.13-0.338,0.305-0.791,0.528-1.37
									c0.119-0.303,0.251-0.638,0.396-1.005c0.128-0.376,0.233-0.799,0.366-1.251c0.26-0.905,0.589-1.942,0.763-3.155
									c0.514-2.387,0.696-5.408,0.365-8.852c-0.349-3.438-1.351-7.328-3.386-11.183c-2.036-3.829-5.056-7.691-9.247-10.646
									c-4.172-2.913-9.359-5.185-15.108-5.635c-1.428-0.188-2.884-0.127-4.354-0.117c-0.733,0.038-1.467,0.146-2.207,0.215
									c-0.743,0.051-1.476,0.201-2.211,0.361c-1.488,0.241-2.927,0.74-4.394,1.183c-1.416,0.59-2.869,1.133-4.222,1.922
									c-2.725,1.504-5.359,3.365-7.547,5.744c-2.211,2.348-4.087,5.065-5.54,8.045c-1.374,3.019-2.277,6.196-2.681,9.396
									c-0.443,3.203-0.2,6.419,0.374,9.48c0.253,1.546,0.759,3.014,1.205,4.481c0.593,1.414,1.124,2.842,1.886,4.143
									c0.654,1.358,1.555,2.554,2.369,3.774c0.928,1.141,1.809,2.302,2.863,3.284c4.008,4.148,9.063,6.701,13.966,8.063
									c4.948,1.35,9.849,1.22,14.097,0.352c4.269-0.886,7.906-2.589,10.779-4.51c2.866-1.937,5.079-4,6.592-5.917
									c0.824-0.907,1.415-1.82,1.947-2.597c0.263-0.39,0.523-0.74,0.731-1.078c0.191-0.345,0.365-0.66,0.523-0.945
									c0.304-0.54,0.543-0.964,0.72-1.279C410.282,310.785,410.372,310.64,410.382,310.645c0.01,0.005-0.06,0.159-0.206,0.456
									c-0.164,0.324-0.384,0.758-0.665,1.313c-0.15,0.291-0.316,0.612-0.498,0.965c-0.201,0.345-0.453,0.703-0.709,1.101
									c-0.518,0.793-1.097,1.724-1.913,2.651c-1.496,1.956-3.704,4.069-6.585,6.057c-2.888,1.972-6.559,3.729-10.886,4.657
									c-4.306,0.91-9.288,1.07-14.329-0.28c-4.995-1.363-10.152-3.945-14.253-8.162c-1.077-0.999-1.979-2.18-2.928-3.342
									c-0.835-1.242-1.755-2.461-2.426-3.844c-0.779-1.326-1.326-2.781-1.932-4.223c-0.46-1.496-0.977-2.993-1.238-4.571
									c-0.591-3.123-0.841-6.408-0.392-9.679c0.409-3.269,1.331-6.515,2.735-9.597c1.483-3.043,3.4-5.818,5.66-8.214
									c2.237-2.428,4.927-4.327,7.712-5.858c1.382-0.803,2.866-1.357,4.312-1.955c1.498-0.451,2.968-0.955,4.486-1.199
									c0.75-0.161,1.498-0.312,2.256-0.363c0.755-0.07,1.504-0.176,2.252-0.214c1.5-0.008,2.985-0.064,4.441,0.13
									c5.861,0.477,11.135,2.809,15.366,5.793c4.251,3.027,7.299,6.971,9.339,10.87c2.039,3.927,3.022,7.877,3.34,11.36
									c0.301,3.488,0.078,6.536-0.478,8.936c-0.195,1.219-0.545,2.258-0.826,3.163c-0.144,0.451-0.259,0.874-0.397,1.248
									c-0.156,0.365-0.298,0.698-0.427,0.999c-0.249,0.57-0.444,1.017-0.589,1.349
									C410.467,310.497,410.392,310.65,410.382,310.645z"/>
							</g>
						</g>
					</g>
				</g>
			</g>
		</g>
		<g>
			<g style="opacity:0.3;">
				<g>
					<g>
						<path d="M410.026,310.835c-0.171-0.073,0.29-1.356,0.853-3.708c0.547-2.344,1.16-5.819,0.844-10.077
							c-0.16-2.121-0.548-4.427-1.272-6.81c-0.743-2.372-1.794-4.829-3.275-7.185c-0.735-1.18-1.56-2.346-2.504-3.449
							c-0.938-1.108-1.958-2.188-3.1-3.174c-1.136-0.988-2.349-1.932-3.667-2.758c-1.316-0.829-2.71-1.572-4.172-2.218
							c-1.471-0.625-2.969-1.133-4.473-1.527c-1.506-0.396-3.025-0.635-4.523-0.788c-1.501-0.158-2.988-0.164-4.438-0.089
							c-1.452,0.066-2.867,0.263-4.231,0.533c-2.733,0.532-5.247,1.446-7.486,2.527c-2.234,1.101-4.183,2.395-5.843,3.729
							c-3.323,2.682-5.44,5.504-6.778,7.506c-1.331,2.019-1.953,3.233-2.124,3.157c-0.127-0.052,0.21-1.393,1.337-3.62
							c1.132-2.204,3.127-5.314,6.497-8.315c1.682-1.493,3.694-2.95,6.035-4.201c2.347-1.231,5.009-2.281,7.931-2.913
							c1.458-0.321,2.975-0.559,4.536-0.655c1.56-0.104,3.163-0.116,4.782,0.036c1.619,0.148,3.26,0.396,4.888,0.814
							c1.627,0.415,3.245,0.961,4.83,1.636c1.577,0.695,3.08,1.501,4.495,2.403c1.418,0.9,2.721,1.929,3.936,3.007
							c1.219,1.076,2.306,2.253,3.296,3.462c0.997,1.204,1.862,2.473,2.625,3.755c1.536,2.562,2.591,5.221,3.298,7.774
							c0.686,2.561,1,5.026,1.06,7.273c0.113,4.509-0.793,8.091-1.627,10.425C410.9,309.728,410.151,310.891,410.026,310.835z"/>
					</g>
				</g>
			</g>
		</g>
		<g style="opacity:0.3;">
			<g>
				<g>
					<g>
						<g>
							<g>
								<path d="M377.719,315.639l-2.224,4.905l-4.378-1.987l2.165-4.772c-4.215-2.23-7.76-5.473-9.314-8.448l4.831-4.251
									c1.455,2.614,4.07,5.226,7.085,6.963l3.317-7.314c-4.325-3.386-9.019-7.469-6.178-13.731
									c2.106-4.641,7.284-7.096,14.559-4.746l2.205-4.861l4.379,1.987l-2.166,4.774c3.165,1.752,5.964,4.077,7.677,6.702
									l-4.632,4.394c-1.658-2.283-3.596-4.06-5.667-5.317l-3.377,7.445c4.344,3.342,8.951,7.387,6.151,13.56
									C390.087,315.495,384.971,317.926,377.719,315.639z M382.121,294.299l2.819-6.218c-2.558-0.527-4.054,0.326-4.71,1.771
									C379.536,291.384,380.471,292.813,382.121,294.299z M384.865,308.27c0.695-1.534-0.197-2.94-1.782-4.453l-2.741,6.043
									C382.75,310.372,384.23,309.67,384.865,308.27z"/>
							</g>
						</g>
					</g>
				</g>
			</g>
		</g>
	</g>
</g>
<g id="Plants">
	<g>
		<g>
			<path style="fill:#455A64;" d="M162.104,245.448c-11.711,6.066-20.692,16.511-27.149,28.011
				c-6.457,11.5-10.619,24.119-14.741,36.648l-3.607,64.613c13.627-23.182,24.564-50.435,27.519-77.162
				c-3.023-0.269-6.046-0.538-9.068-0.808c6.08-0.928,11.184-5.333,14.431-10.557c3.247-5.224,4.919-11.247,6.55-17.177
				c-3.688,0.548-7.376,1.096-11.064,1.645C153.638,264.878,159.919,255.632,162.104,245.448z"/>
		</g>
		<g style="opacity:0.3;">
			<g>
				<path d="M162.104,245.448c-11.711,6.066-20.692,16.511-27.149,28.011c-6.457,11.5-10.619,24.119-14.741,36.648l-3.607,64.613
					c13.627-23.182,24.564-50.435,27.519-77.162c-3.023-0.269-6.046-0.538-9.068-0.808c6.08-0.928,11.184-5.333,14.431-10.557
					c3.247-5.224,4.919-11.247,6.55-17.177c-3.688,0.548-7.376,1.096-11.064,1.645C153.638,264.878,159.919,255.632,162.104,245.448
					z"/>
			</g>
		</g>
		<g>
			<path style="fill:#455A64;" d="M114.589,389.859c0,0-29.577-35.402-29.236-69.197h11.948c0,0-12.978-8.534-11.951-13.313
				c1.027-4.779,1.368-22.872,1.368-22.872l10.924,2.731c0,0-8.193-4.096-9.217-10.582s2.39-36.526,2.39-36.526
				s13.313,13.996,17.41,28.334c4.096,14.337,14.849,31.065,11.692,74.76C116.759,386.888,114.589,389.859,114.589,389.859z"/>
		</g>
		<g>
			<path style="fill:#455A64;" d="M129.584,393.201c0,0,32.044-21.347,39.164-48.592l-9.606-2.614c0,0,12.301-4.022,12.521-8.089
				c0.22-4.067,3.904-18.688,3.904-18.688l-9.38-0.194c0,0,7.483-1.501,9.725-6.492c2.242-4.99,6.07-29.889,6.07-29.889
				s-13.766,8.34-20.196,18.971c-6.43,10.631-18.735,21.726-25.756,57.547C129.009,390.981,129.584,393.201,129.584,393.201z"/>
		</g>
		<g>
			<g>
				<path style="fill:#263238;" d="M98.895,270.965c0.009-0.002,0.044,0.123,0.105,0.368c0.064,0.271,0.148,0.631,0.256,1.09
					c0.22,0.99,0.534,2.4,0.935,4.202c0.409,1.824,0.885,4.061,1.401,6.665c0.525,2.603,1.138,5.564,1.737,8.852
					c1.265,6.564,2.6,14.412,3.976,23.142c1.333,8.737,2.664,18.364,3.848,28.495c1.16,10.137,2.06,19.816,2.756,28.628
					c0.653,8.815,1.144,16.761,1.41,23.441c0.167,3.338,0.246,6.361,0.328,9.014c0.091,2.654,0.138,4.94,0.156,6.809
					c0.021,1.846,0.037,3.29,0.048,4.304c0,0.471,0,0.841-0.001,1.119c-0.003,0.252-0.009,0.382-0.018,0.382
					c-0.009,0-0.021-0.129-0.035-0.381c-0.013-0.278-0.03-0.648-0.051-1.118c-0.034-1.013-0.083-2.456-0.146-4.301
					c-0.049-1.868-0.126-4.152-0.245-6.804c-0.11-2.652-0.215-5.672-0.405-9.007c-0.313-6.674-0.841-14.613-1.52-23.42
					c-0.722-8.805-1.636-18.475-2.795-28.606c-1.183-10.124-2.499-19.746-3.805-28.482c-1.348-8.729-2.645-16.579-3.863-23.148
					c-0.576-3.291-1.163-6.255-1.661-8.862c-0.489-2.609-0.936-4.851-1.314-6.681c-0.36-1.81-0.642-3.227-0.84-4.221
					c-0.087-0.463-0.155-0.827-0.205-1.101C98.904,271.095,98.886,270.967,98.895,270.965z"/>
			</g>
		</g>
		<g>
			<path style="fill:#455A64;" d="M110.486,411.538c0,0-27.067-30.711-35.471-49.276l6.344-2.711
				c-4.599,0.759-9.31-1.218-12.876-4.219c-3.566-3.001-6.185-6.949-8.752-10.84l8.358-1.412c-7.6-2.133-14.297-7.32-18.261-14.146
				c9.863,1.622,18.786,7.039,26.138,13.81c5.955,5.483,10.997,11.849,15.839,18.352c2.362,3.172,4.429,6.553,6.151,10.113
				C102.504,380.613,110.502,400.259,110.486,411.538z"/>
		</g>
		<g>
			<g>
				<path style="fill:#263238;" d="M169.173,296.519c0.008,0.004-0.035,0.11-0.126,0.312c-0.106,0.226-0.244,0.52-0.417,0.892
					c-0.392,0.809-0.945,1.95-1.65,3.406c-1.453,2.948-3.51,7.236-5.999,12.557c-2.497,5.318-5.369,11.698-8.456,18.826
					c-3.06,7.139-6.319,15.033-9.562,23.389c-3.224,8.367-6.123,16.402-8.662,23.743c-2.512,7.351-4.679,14.004-6.409,19.618
					c-1.739,5.612-3.101,10.168-4.009,13.326c-0.457,1.551-0.816,2.768-1.07,3.63c-0.121,0.392-0.217,0.702-0.291,0.941
					c-0.068,0.211-0.108,0.318-0.116,0.316c-0.009-0.002,0.014-0.114,0.065-0.33c0.061-0.242,0.141-0.557,0.241-0.954
					c0.232-0.868,0.559-2.094,0.976-3.657c0.848-3.176,2.157-7.75,3.852-13.379c1.686-5.632,3.818-12.301,6.307-19.666
					c2.516-7.356,5.404-15.402,8.631-23.776c3.245-8.363,6.52-16.258,9.607-23.392c3.113-7.123,6.022-13.491,8.563-18.792
					c2.533-5.305,4.641-9.57,6.151-12.491c0.743-1.437,1.325-2.564,1.738-3.363c0.193-0.362,0.346-0.649,0.464-0.868
					C169.106,296.612,169.165,296.514,169.173,296.519z"/>
			</g>
		</g>
		<g>
			<g>
				<path style="fill:#263238;" d="M112.783,424.698c-0.018,0.002-0.061-0.193-0.126-0.565c-0.069-0.43-0.155-0.969-0.261-1.631
					c-0.103-0.709-0.234-1.576-0.421-2.576c-0.182-1.001-0.356-2.147-0.628-3.398c-0.485-2.514-1.179-5.484-2.065-8.749
					c-0.914-3.257-2.037-6.806-3.406-10.463c-1.39-3.65-2.893-7.056-4.36-10.105c-1.494-3.036-2.935-5.724-4.233-7.931
					c-0.623-1.119-1.249-2.094-1.774-2.965c-0.521-0.874-0.995-1.611-1.387-2.211c-0.358-0.567-0.649-1.029-0.881-1.396
					c-0.197-0.323-0.293-0.497-0.278-0.507c0.015-0.01,0.14,0.144,0.365,0.448c0.254,0.354,0.572,0.798,0.963,1.343
					c0.418,0.584,0.918,1.306,1.464,2.168c0.55,0.859,1.2,1.823,1.845,2.934c1.343,2.19,2.823,4.87,4.347,7.908
					c1.497,3.05,3.02,6.466,4.417,10.133c1.375,3.673,2.489,7.243,3.381,10.521c0.864,3.286,1.524,6.276,1.964,8.807
					c0.25,1.26,0.399,2.413,0.554,3.421c0.16,1.008,0.262,1.88,0.334,2.595c0.067,0.668,0.121,1.212,0.165,1.645
					C112.792,424.498,112.8,424.696,112.783,424.698z"/>
			</g>
		</g>
		<g>
			<rect x="89.258" y="417.474" style="fill:#FF725E;" width="59.24" height="12.084"/>
		</g>
		<g>
			<polygon style="fill:#FF725E;" points="94.903,429.559 101.311,470.205 137.107,470.205 143.08,429.559 			"/>
		</g>
		<g>
			<g>
				<path style="fill:#263238;" d="M144.864,429.559c0,0.144-11.206,0.26-25.027,0.26c-13.826,0-25.03-0.117-25.03-0.26
					s11.204-0.26,25.03-0.26C133.657,429.298,144.864,429.415,144.864,429.559z"/>
			</g>
		</g>
	</g>
</g>
<g id="Character_1_">
	<g>
		<g>
			<path style="fill:#455A64;" d="M584.181,470.653H428.513c-4.349,0-7.875-3.526-7.875-7.875V356.699
				c0-4.349,3.526-7.875,7.875-7.875h155.668c4.349,0,7.875,3.526,7.875,7.875v106.079
				C592.056,467.127,588.53,470.653,584.181,470.653z"/>
		</g>
		<g>
			<path style="fill:#455A64;" d="M589.536,427.396h-44.371c-7.363,0-13.332-5.969-13.332-13.332v-2.183
				c0-7.363,5.969-13.332,13.332-13.332h44.371c7.363,0,13.332,5.969,13.332,13.332v2.183
				C602.868,421.427,596.899,427.396,589.536,427.396z"/>
			<path style="fill:#263238;" d="M589.536,427.896h-44.37c-7.627,0-13.832-6.205-13.832-13.832v-2.183
				c0-7.627,6.205-13.832,13.832-13.832h44.37c7.627,0,13.832,6.205,13.832,13.832v2.183
				C603.368,421.691,597.163,427.896,589.536,427.896z M545.166,399.049c-7.075,0-12.832,5.757-12.832,12.832v2.183
				c0,7.075,5.757,12.832,12.832,12.832h44.37c7.075,0,12.832-5.757,12.832-12.832v-2.183c0-7.075-5.757-12.832-12.832-12.832
				H545.166z"/>
		</g>
		<g>
			
				<ellipse transform="matrix(0.5753 -0.8179 0.8179 0.5753 -105.1649 623.3908)" style="fill:#263238;" cx="547.761" cy="412.972" rx="10.25" ry="10.25"/>
		</g>
	</g>
	<g>
		<g>
			<g>
				<path style="fill:#263238;" d="M535.267,128.318c-0.302,10.521,4.164,21.088,11.922,28.201
					c1.776-5.145,3.552-10.291,5.328-15.436"/>
			</g>
			<g>
				<path style="fill:#263238;" d="M575.437,97.613c-4.574-2.5-10.1-2.859-15.211-1.836c-5.111,1.023-9.874,3.337-14.386,5.947
					c-2.532,1.465-5.056,3.075-6.875,5.364c-3.321,4.179-6.604,11.041-6.924,16.37c-0.259,4.308,1.391,15.094,3.212,19.007
					c1.671,3.591,9.492,6.325,13.352,7.211l35.422-41.195C582.775,103.905,579.6,99.888,575.437,97.613z"/>
			</g>
			<g>
				<path style="fill:#263238;" d="M581.544,103.169l-8.491-1.519c4.641,11.054,5.9,36.334,8.556,48.026
					c3.13-4.542,10.399-18.375,10.01-23.877C591.229,120.298,591.633,102.231,581.544,103.169z"/>
			</g>
			<g>
				<path style="fill:#FFBF9D;" d="M586.399,121.191c-0.553-8.482-6.197-18.878-14.648-17.965l-19.555,4.989
					c-6.274,1.6-10.454,6.897-10.911,13.356c-0.023,0.322-0.055-0.07-0.05,0.172l4.365,50.638l14.679,29.131l0,0l12.964-24.574
					c0.007-4.13-0.001-13.395,0-13.374c0,0,10.834-1.824,13.049-15.969C587.392,140.559,587.014,130.614,586.399,121.191z"/>
			</g>
			<g>
				<path style="fill:#263238;" d="M580.34,132.794c0.036,0.958-0.745,1.778-1.745,1.834c-0.997,0.056-1.837-0.673-1.873-1.631
					c-0.036-0.958,0.745-1.779,1.742-1.834C579.465,131.106,580.304,131.836,580.34,132.794z"/>
			</g>
			<g>
				<path style="fill:#263238;" d="M584.276,126.731c-0.224,0.237-1.601-0.776-3.552-0.767c-1.95-0.019-3.379,0.988-3.592,0.75
					c-0.104-0.105,0.124-0.533,0.747-0.988c0.613-0.453,1.659-0.896,2.875-0.893c1.216,0.004,2.239,0.449,2.828,0.906
					C584.182,126.197,584.386,126.625,584.276,126.731z"/>
			</g>
			<g>
				<path style="fill:#263238;" d="M563.981,132.794c0.036,0.958-0.745,1.778-1.745,1.833c-0.997,0.056-1.837-0.673-1.873-1.631
					c-0.036-0.957,0.746-1.779,1.743-1.834C563.106,131.106,563.946,131.836,563.981,132.794z"/>
			</g>
			<g>
				<path style="fill:#263238;" d="M565.743,126.731c-0.225,0.237-1.603-0.777-3.553-0.767c-1.949-0.018-3.379,0.988-3.591,0.75
					c-0.104-0.105,0.122-0.533,0.747-0.988c0.613-0.454,1.659-0.896,2.874-0.894c1.216,0.004,2.239,0.45,2.828,0.906
					C565.647,126.197,565.852,126.625,565.743,126.731z"/>
			</g>
			<g>
				<path style="fill:#263238;" d="M571.844,142.058c-0.009-0.111,1.203-0.323,3.169-0.579c0.498-0.053,0.969-0.153,1.052-0.493
					c0.117-0.361-0.093-0.897-0.336-1.476c-0.471-1.205-0.964-2.468-1.482-3.791c-2.058-5.398-3.55-9.837-3.332-9.918
					c0.218-0.081,2.064,4.229,4.122,9.627c0.495,1.331,0.969,2.6,1.42,3.814c0.19,0.566,0.516,1.208,0.263,1.955
					c-0.133,0.373-0.498,0.644-0.818,0.73c-0.319,0.098-0.599,0.104-0.846,0.119C573.079,142.157,571.851,142.169,571.844,142.058z"
					/>
			</g>
			<g>
				<path style="fill:#FF9A6C;" d="M554.487,158.531c0,0,4.602,9.713,18.752,8.358l0.004-3.326
					C573.243,163.563,563.925,164.175,554.487,158.531z"/>
			</g>
			<g>
				<path style="fill:#263238;" d="M565.13,119.679c-0.191,0.531-2.14,0.284-4.429,0.565c-2.295,0.235-4.139,0.909-4.444,0.434
					c-0.136-0.227,0.185-0.727,0.93-1.243c0.739-0.515,1.918-1.005,3.293-1.161c1.374-0.153,2.633,0.062,3.468,0.4
					C564.789,119.011,565.212,119.427,565.13,119.679z"/>
			</g>
			<g>
				<path style="fill:#263238;" d="M583.639,120.761c-0.342,0.444-1.688-0.013-3.304-0.031c-1.616-0.075-2.985,0.304-3.301-0.158
					c-0.139-0.225,0.076-0.669,0.673-1.09c0.589-0.419,1.574-0.763,2.685-0.732c1.111,0.033,2.074,0.433,2.637,0.885
					C583.602,120.089,583.79,120.545,583.639,120.761z"/>
			</g>
			<g>
				<path style="fill:#263238;" d="M582.558,108.275c-0.865-2.128-3.2-3.405-5.494-3.522c-2.294-0.116-4.534,0.752-6.523,1.902
					c-8.422,4.868-12.75,16.626-21.072,21.662c-2.047,1.239-4.71,0.104-6.451,1.745c-1.741,1.641-2.87,4.263-1.907,6.453
					c-1.118-1.533-2.251-3.095-2.887-4.883c-0.636-1.788-0.715-3.868,0.233-5.512c0.72-1.248,1.992-2.2,2.341-3.597
					c0.307-1.229-0.178-2.515-0.125-3.781c0.054-1.289,0.66-2.484,1.295-3.607c3.259-5.765,7.744-10.979,13.518-14.221
					c3.773-2.118,8.087-3.357,12.411-3.21c4.324,0.147,8.643,1.736,11.808,4.687C581.566,104.125,583.523,105.921,582.558,108.275"
					/>
			</g>
			<g>
				<g>
					<path style="fill:#FFBF9D;" d="M543.222,131.815c-0.149-0.406-7.525-3.068-7.623,4.773c-0.095,7.617,7.591,6.117,7.606,5.899
						C543.22,142.268,543.222,131.815,543.222,131.815z"/>
				</g>
			</g>
			<g>
				<g>
					<g>
						<path style="fill:#FF9A6C;" d="M540.882,139.579c-0.033-0.024-0.134,0.092-0.359,0.192c-0.219,0.098-0.596,0.164-0.992,0.011
							c-0.802-0.303-1.467-1.587-1.492-2.96c-0.013-0.693,0.139-1.352,0.389-1.896c0.238-0.555,0.602-0.941,1.008-1.009
							c0.404-0.089,0.689,0.156,0.78,0.371c0.1,0.214,0.05,0.365,0.091,0.379c0.021,0.019,0.165-0.126,0.106-0.441
							c-0.03-0.152-0.117-0.332-0.295-0.48c-0.181-0.151-0.45-0.229-0.732-0.201c-0.588,0.035-1.122,0.571-1.397,1.168
							c-0.308,0.6-0.494,1.34-0.48,2.119c0.034,1.535,0.807,2.979,1.905,3.308c0.535,0.145,0.983-0.013,1.216-0.19
							C540.867,139.763,540.908,139.593,540.882,139.579z"/>
					</g>
				</g>
			</g>
			<g>
				<path style="fill:#455A64;" d="M540.192,127.901c0.006,0.01,0.164-0.078,0.46-0.257c0.291-0.185,0.741-0.432,1.277-0.812
					c1.065-0.77,2.541-1.989,4.112-3.743c1.581-1.744,3.235-4.007,5.029-6.533c1.797-2.519,3.77-5.308,6.286-7.827
					c1.281-1.23,2.628-2.335,4.056-3.205c1.425-0.877,2.917-1.523,4.382-1.988c2.933-0.944,5.749-1.15,8.069-0.991
					c2.33,0.146,4.172,0.64,5.405,1.059c0.626,0.19,1.089,0.401,1.411,0.523c0.321,0.126,0.492,0.187,0.498,0.176
					c0.005-0.011-0.156-0.093-0.469-0.24c-0.314-0.144-0.771-0.375-1.394-0.587c-1.228-0.461-3.079-0.998-5.432-1.177
					c-2.344-0.193-5.2-0.01-8.183,0.931c-1.49,0.464-3.009,1.114-4.461,2.002c-1.457,0.882-2.826,2.003-4.124,3.249
					c-2.547,2.55-4.52,5.361-6.303,7.889c-1.78,2.536-3.405,4.802-4.951,6.555c-1.537,1.762-2.974,2.998-4.008,3.797
					c-0.521,0.394-0.956,0.658-1.234,0.861C540.332,127.781,540.186,127.89,540.192,127.901z"/>
			</g>
			<g>
				<path style="fill:#263238;" d="M542.107,130.056c-0.119,2.08-0.215,4.277,0.746,6.126c0.961,1.849,3.385,3.106,5.194,2.072
					c1.476-0.843,1.917-2.733,2.167-4.414c0.722-4.851,1.053-9.755,1.817-14.6L542.107,130.056z"/>
			</g>
			<g>
				<path style="fill:#455A64;" d="M580.682,104.652c-0.008,0.044-0.673-0.127-1.894-0.166c-1.214-0.033-3.007,0.128-5.041,0.921
					c-1.013,0.395-2.091,0.919-3.158,1.626c-1.069,0.706-2.157,1.551-3.258,2.487c-2.185,1.888-4.448,4.159-6.378,6.876
					c-0.967,1.359-1.824,2.756-2.753,4.049c-0.92,1.298-1.944,2.47-3.054,3.434c-2.214,1.924-4.495,3.272-6.436,4.306
					c-1.949,1.03-3.578,1.751-4.702,2.251c-0.531,0.226-0.962,0.41-1.303,0.555c-0.3,0.122-0.46,0.18-0.467,0.166
					c-0.006-0.014,0.142-0.097,0.431-0.245c0.331-0.164,0.752-0.372,1.269-0.628c1.101-0.545,2.708-1.307,4.628-2.365
					c1.913-1.062,4.154-2.426,6.32-4.336c1.078-0.951,2.069-2.096,2.973-3.382c0.912-1.28,1.767-2.679,2.745-4.053
					c1.959-2.756,4.252-5.039,6.472-6.929c1.12-0.938,2.223-1.779,3.32-2.485c1.097-0.709,2.205-1.228,3.245-1.612
					c2.089-0.772,3.925-0.889,5.154-0.804c0.618,0.041,1.093,0.123,1.409,0.196C580.522,104.591,580.686,104.638,580.682,104.652z"
					/>
			</g>
			<g>
				<path style="fill:#455A64;" d="M541.897,125.351c0.012,0.023-0.226,0.182-0.674,0.455c-0.522,0.306-1.164,0.683-1.929,1.132
					c-0.209,0.119-0.425,0.244-0.649,0.372c-0.242,0.133-0.51,0.25-0.834,0.276c-0.159,0.009-0.349-0.005-0.516-0.122
					c-0.166-0.112-0.272-0.302-0.285-0.502c-0.016-0.4,0.199-0.694,0.36-0.963c0.687-1.099,1.44-2.305,2.239-3.585l0.302,0.281
					c-0.714,0.529-1.546,0.951-2.448,1.221c-0.905,0.271-1.836,0.374-2.726,0.321c-0.218-0.007-0.464-0.037-0.691-0.118
					c-0.222-0.079-0.481-0.23-0.591-0.515c-0.113-0.278-0.006-0.586,0.128-0.77c0.133-0.196,0.297-0.34,0.434-0.477
					c1.132-1.095,1.98-2.249,2.594-3.272c1.223-2.06,1.57-3.537,1.65-3.508c0.024,0.007-0.04,0.377-0.24,1.025
					c-0.206,0.645-0.553,1.571-1.148,2.634c-0.591,1.062-1.433,2.262-2.58,3.402c-0.284,0.269-0.566,0.579-0.456,0.818
					c0.09,0.24,0.524,0.358,0.924,0.361c0.842,0.045,1.722-0.056,2.58-0.313c0.855-0.255,1.643-0.652,2.321-1.148l0.909-0.665
					l-0.608,0.946c-0.816,1.27-1.584,2.466-2.284,3.556c-0.176,0.263-0.334,0.524-0.324,0.743c0.01,0.216,0.195,0.343,0.439,0.324
					c0.494-0.025,0.941-0.361,1.369-0.564c0.789-0.405,1.451-0.746,1.989-1.023C541.622,125.445,541.884,125.329,541.897,125.351z"
					/>
			</g>
			<g>
				<g>
					<g>
						<g>
							<g>
								<g>
									<g>
										<g>
											<path style="fill:#FF9A6C;" d="M570.155,145.765c-0.704-0.858-1.902-1.304-3.074-1.144
												c-0.812,0.111-1.624,0.523-2.099,1.191c-0.474,0.668-0.549,1.598-0.079,2.206c0.529,0.686,1.594,0.815,2.482,0.537
												c0.889-0.278,1.642-0.882,2.357-1.482c0.198-0.166,0.399-0.34,0.52-0.563c0.119-0.223,0.137-0.511-0.025-0.687"/>
										</g>
									</g>
								</g>
							</g>
						</g>
					</g>
				</g>
			</g>
			<g>
				<g>
					<g>
						<g>
							<g>
								<g>
									<g>
										<g>
											<g>
												<path style="fill:#263238;" d="M565.32,142.735c0.305-0.027,0.372,1.978,2.162,3.348
													c1.787,1.375,3.954,1.083,3.979,1.363c0.032,0.125-0.471,0.404-1.388,0.456c-0.899,0.058-2.222-0.186-3.318-1.024
													c-1.092-0.84-1.587-1.991-1.683-2.812C564.969,143.231,565.181,142.728,565.32,142.735z"/>
											</g>
										</g>
									</g>
								</g>
							</g>
						</g>
					</g>
				</g>
			</g>
		</g>
		<g>
			<polygon style="fill:#263238;" points="593.734,278.094 601.916,296.588 562.174,311.465 553.281,291.566 			"/>
		</g>
		<g>
			<g>
				<g>
					<g>
						<g>
							<g>
								<g>
									<g>
										<g>
											<g>
												<path style="fill:#455A64;" d="M674.052,390.657l10.873,23.468c0,0,27.146-3.59,29.578,0.551l-44.387,23.137
													l-18.442-35.872L674.052,390.657z"/>
											</g>
										</g>
									</g>
								</g>
							</g>
						</g>
					</g>
				</g>
				<g>
					<g>
						<g>
							<g>
								<g>
									<g>
										<g>
											<g>
												<g>
													<path style="fill:#E0E0E0;" d="M670.443,419.142c-0.751,0.681-0.856,1.967-0.207,2.746
														c0.65,0.779,1.958,0.897,2.721,0.229c0.763-0.668,0.936-2.209,0.203-2.91c-0.733-0.701-2.276-0.756-2.856,0.076"/>
												</g>
											</g>
										</g>
									</g>
								</g>
							</g>
						</g>
					</g>
				</g>
				<g>
					<g>
						<g>
							<g>
								<g>
									<g>
										<g>
											<g>
												<path style="fill:#263238;" d="M670.114,437.811l-1.469-2.857l43.533-21.591c0,0,1.866,0.152,2.67,1.438
													L670.114,437.811z"/>
											</g>
										</g>
									</g>
								</g>
							</g>
						</g>
					</g>
				</g>
				<g>
					<g>
						<g>
							<g>
								<g>
									<g>
										<g>
											<g>
												<g>
													<path style="fill:#263238;" d="M685.405,414.065c0.104,0.224-0.945,0.882-1.669,2.139
														c-0.756,1.239-0.831,2.475-1.077,2.491c-0.225,0.061-0.564-1.422,0.338-2.928
														C683.887,414.252,685.351,413.839,685.405,414.065z"/>
												</g>
											</g>
										</g>
									</g>
								</g>
							</g>
						</g>
					</g>
				</g>
				<g>
					<g>
						<g>
							<g>
								<g>
									<g>
										<g>
											<g>
												<g>
													<path style="fill:#263238;" d="M691.125,413.621c0.159,0.188-0.605,1.046-0.879,2.356
														c-0.314,1.302,0.009,2.404-0.215,2.506c-0.189,0.14-0.996-1.072-0.623-2.694
														C689.766,414.163,691.013,413.413,691.125,413.621z"/>
												</g>
											</g>
										</g>
									</g>
								</g>
							</g>
						</g>
					</g>
				</g>
				<g>
					<g>
						<g>
							<g>
								<g>
									<g>
										<g>
											<g>
												<g>
													<path style="fill:#263238;" d="M696.681,417.915c-0.176,0.148-1.041-0.795-1.087-2.288
														c-0.057-1.492,0.739-2.494,0.925-2.358c0.216,0.118-0.124,1.104-0.067,2.328
														C696.481,416.823,696.889,417.783,696.681,417.915z"/>
												</g>
											</g>
										</g>
									</g>
								</g>
							</g>
						</g>
					</g>
				</g>
				<g>
					<g>
						<g>
							<g>
								<g>
									<g>
										<g>
											<g>
												<g>
													<path style="fill:#263238;" d="M682.312,408.956c0.009,0.247-1.154,0.456-2.355,1.172
														c-1.216,0.691-1.972,1.6-2.182,1.47c-0.208-0.094,0.323-1.389,1.75-2.212
														C680.944,408.552,682.332,408.728,682.312,408.956z"/>
												</g>
											</g>
										</g>
									</g>
								</g>
							</g>
						</g>
					</g>
				</g>
				<g>
					<g>
						<g>
							<g>
								<g>
									<g>
										<g>
											<g>
												<path style="fill:#263238;" d="M680.594,403.583c0.049,0.09-0.752,0.667-2.263,1.134
													c-0.753,0.231-1.682,0.419-2.729,0.473c-0.523,0.027-1.076,0.02-1.645-0.03c-0.276-0.028-0.59-0.038-0.951-0.185
													c-0.36-0.105-0.795-0.619-0.695-1.119c0.055-0.464,0.387-0.82,0.709-0.993c0.327-0.179,0.63-0.249,0.906-0.313
													c0.563-0.133,1.119-0.206,1.648-0.231c1.06-0.045,2.011,0.095,2.775,0.309c1.537,0.438,2.311,1.078,2.258,1.159
													c-0.063,0.123-0.921-0.307-2.391-0.566c-0.732-0.129-1.619-0.195-2.589-0.113c-0.484,0.045-0.989,0.127-1.499,0.258
													c-0.541,0.117-0.949,0.32-0.963,0.595c-0.003,0.104,0.007,0.138,0.178,0.227c0.169,0.076,0.426,0.104,0.698,0.133
													c0.53,0.058,1.046,0.08,1.538,0.077c0.984-0.009,1.871-0.125,2.607-0.272
													C679.656,403.833,680.537,403.461,680.594,403.583z"/>
											</g>
										</g>
									</g>
								</g>
							</g>
						</g>
					</g>
				</g>
			</g>
			<g>
				<g>
					<g>
						<g>
							<g>
								<g>
									<g>
										<g>
											<g>
												<path style="fill:#455A64;" d="M631.816,428.371l-1.374,25.828c0,0,25.67,9.531,25.881,14.329l-50.054-0.326
													l0.49-40.332L631.816,428.371z"/>
											</g>
										</g>
									</g>
								</g>
							</g>
						</g>
					</g>
				</g>
				<g>
					<g>
						<g>
							<g>
								<g>
									<g>
										<g>
											<g>
												<g>
													<path style="fill:#E0E0E0;" d="M615.296,451.855c-0.983,0.251-1.677,1.338-1.468,2.33
														c0.21,0.992,1.31,1.708,2.297,1.475c0.987-0.233,1.861-1.514,1.541-2.476c-0.32-0.962-1.658-1.732-2.56-1.269"/>
												</g>
											</g>
										</g>
									</g>
								</g>
							</g>
						</g>
					</g>
				</g>
				<g>
					<g>
						<g>
							<g>
								<g>
									<g>
										<g>
											<g>
												<path style="fill:#263238;" d="M606.269,468.2l0.039-3.212l48.576,1.292c0,0,1.578,1.007,1.687,2.521L606.269,468.2z"/>
											</g>
										</g>
									</g>
								</g>
							</g>
						</g>
					</g>
				</g>
				<g>
					<g>
						<g>
							<g>
								<g>
									<g>
										<g>
											<g>
												<g>
													<path style="fill:#263238;" d="M630.895,454.371c-0.013,0.247-1.248,0.337-2.476,1.11
														c-1.248,0.741-1.892,1.798-2.117,1.697c-0.227-0.052,0.167-1.521,1.669-2.43
														C629.465,453.825,630.952,454.145,630.895,454.371z"/>
												</g>
											</g>
										</g>
									</g>
								</g>
							</g>
						</g>
					</g>
				</g>
				<g>
					<g>
						<g>
							<g>
								<g>
									<g>
										<g>
											<g>
												<g>
													<path style="fill:#263238;" d="M636.157,456.655c0.052,0.24-1.024,0.641-1.88,1.671
														c-0.887,1.004-1.117,2.129-1.363,2.114c-0.233,0.035-0.378-1.413,0.71-2.673
														C634.702,456.498,636.156,456.419,636.157,456.655z"/>
												</g>
											</g>
										</g>
									</g>
								</g>
							</g>
						</g>
					</g>
				</g>
				<g>
					<g>
						<g>
							<g>
								<g>
									<g>
										<g>
											<g>
												<g>
													<path style="fill:#263238;" d="M639.058,463.05c-0.225,0.049-0.547-1.19,0.11-2.531
														c0.647-1.345,1.82-1.858,1.921-1.651c0.136,0.205-0.626,0.917-1.148,2.026
														C639.392,461.991,639.303,463.03,639.058,463.05z"/>
												</g>
											</g>
										</g>
									</g>
								</g>
							</g>
						</g>
					</g>
				</g>
				<g>
					<g>
						<g>
							<g>
								<g>
									<g>
										<g>
											<g>
												<g>
													<path style="fill:#263238;" d="M630.552,448.408c-0.108,0.223-1.234-0.137-2.63-0.066
														c-1.398,0.042-2.491,0.491-2.616,0.278c-0.139-0.181,0.936-1.076,2.582-1.136
														C629.533,447.41,630.677,448.216,630.552,448.408z"/>
												</g>
											</g>
										</g>
									</g>
								</g>
							</g>
						</g>
					</g>
				</g>
				<g>
					<g>
						<g>
							<g>
								<g>
									<g>
										<g>
											<g>
												<path style="fill:#263238;" d="M631.548,442.855c0.001,0.102-0.977,0.238-2.531-0.056
													c-0.773-0.148-1.683-0.417-2.634-0.859c-0.475-0.222-0.96-0.486-1.44-0.796c-0.23-0.154-0.504-0.309-0.754-0.608
													c-0.269-0.262-0.413-0.919-0.091-1.315c0.266-0.384,0.726-0.544,1.091-0.546c0.372-0.006,0.673,0.074,0.947,0.147
													c0.56,0.146,1.085,0.342,1.564,0.567c0.958,0.456,1.733,1.025,2.307,1.572c1.153,1.106,1.538,2.035,1.452,2.081
													c-0.113,0.079-0.67-0.703-1.848-1.62c-0.587-0.456-1.339-0.93-2.235-1.311c-0.449-0.187-0.933-0.351-1.445-0.473
													c-0.533-0.15-0.988-0.161-1.13,0.075c-0.051,0.09-0.058,0.126,0.051,0.284c0.113,0.146,0.328,0.291,0.555,0.444
													c0.442,0.3,0.887,0.561,1.323,0.787c0.874,0.453,1.712,0.766,2.431,0.98
													C630.603,442.638,631.555,442.722,631.548,442.855z"/>
											</g>
										</g>
									</g>
								</g>
							</g>
						</g>
					</g>
				</g>
			</g>
			<g>
				<g>
					<g>
						<g>
							<g>
								<g>
									<g>
										<g>
											<g>
												<g>
													<path style="fill:#263238;" d="M517.348,304.367c0,0,100.293-12.554,106.199-12.557
														c13.875-0.006,22.581,10.572,24.652,18.732c1.533,6.038,32.405,93.246,32.405,93.246l-22.774,11.805l-33.492-59.511
														l-17.069-29.694l-87.963,13.592L517.348,304.367z"/>
												</g>
											</g>
										</g>
									</g>
								</g>
								<g>
									<g>
										<g>
											<g>
												<g>
													<path style="fill:#263238;" d="M611.414,323.646c0,0,13.745,0,21.167,10.996c4.363,6.463,2.83,18.013,2.917,26.732
														c0.119,11.868-2.748,84.185-2.748,84.185l-28.114,0.469l-5.89-75.371l0.348-13.929l-56.134-4.565
														c0,0-5.111-17.016,7.46-30.442C552.037,319.995,611.414,323.646,611.414,323.646z"/>
												</g>
											</g>
										</g>
									</g>
								</g>
							</g>
						</g>
						<g>
							<g>
								<g>
									<g>
										<path style="fill:#263238;" d="M525.92,280.125c0,0-22.171,34.119-8.572,59.751c6.482,12.217,25.875,12.201,25.875,12.201
											l19.885-24.901v-41.194L525.92,280.125z"/>
									</g>
								</g>
							</g>
						</g>
					</g>
				</g>
			</g>
			<g>
				<g>
					<g>
						<path style="fill:#455A64;" d="M543.223,352.077c-0.004-0.009,0.123-0.075,0.373-0.196c0.277-0.129,0.648-0.302,1.119-0.522
							c1.018-0.461,2.47-1.118,4.325-1.958c3.795-1.691,9.238-4.116,15.951-7.107c6.752-2.986,14.777-6.535,23.687-10.474
							c4.461-1.966,9.142-4.029,13.995-6.168c1.227-0.516,2.406-1.117,3.711-1.562c1.283-0.477,2.632-0.774,3.994-1.021
							c2.738-0.421,5.567-0.429,8.381-0.073c2.816,0.349,5.554,1.103,8.067,2.289c1.237,0.624,2.455,1.312,3.467,2.267
							c1.039,0.915,1.861,2.026,2.546,3.186c1.36,2.333,2.12,4.93,2.347,7.508c0.11,1.305,0.034,2.558,0.037,3.808
							c-0.013,1.248-0.026,2.482-0.039,3.7c-0.111,9.742-0.212,18.517-0.296,25.899c-0.105,7.348-0.189,13.305-0.248,17.459
							c-0.041,2.037-0.074,3.63-0.096,4.746c-0.017,0.52-0.03,0.929-0.039,1.234c-0.012,0.278-0.023,0.42-0.033,0.42
							c-0.01,0-0.018-0.143-0.025-0.421c-0.004-0.306-0.01-0.714-0.017-1.235c-0.002-1.117-0.005-2.711-0.01-4.747
							c0.016-4.154,0.04-10.111,0.069-17.46c0.05-7.381,0.109-16.156,0.175-25.898c0.009-1.219,0.019-2.452,0.029-3.7
							c-0.006-1.246,0.065-2.521-0.044-3.761c-0.224-2.497-0.97-5.025-2.287-7.275c-0.662-1.118-1.455-2.186-2.445-3.054
							c-0.956-0.903-2.136-1.57-3.336-2.174c-2.443-1.15-5.131-1.893-7.896-2.235c-2.763-0.349-5.542-0.342-8.221,0.068
							c-1.331,0.241-2.648,0.529-3.895,0.991c-1.252,0.423-2.466,1.036-3.683,1.546c-4.857,2.128-9.542,4.181-14.006,6.137
							c-8.926,3.898-16.967,7.409-23.732,10.363c-6.743,2.922-12.209,5.29-16.021,6.942c-1.874,0.799-3.34,1.424-4.368,1.862
							c-0.481,0.199-0.859,0.355-1.142,0.471C543.362,352.037,543.227,352.086,543.223,352.077z"/>
					</g>
				</g>
			</g>
		</g>
		<g>
			<g>
				<line style="fill:#455A64;" x1="527.414" y1="301.881" x2="621.567" y2="291.81"/>
			</g>
			<g>
				<g>
					<path style="fill:#455A64;" d="M621.567,291.81c0.015,0.143-21.051,2.513-47.047,5.294c-26.005,2.781-47.091,4.92-47.107,4.776
						c-0.015-0.143,21.047-2.513,47.051-5.294C600.461,293.806,621.552,291.667,621.567,291.81z"/>
				</g>
			</g>
		</g>
		<g>
			<g>
				<g>
					<path style="fill:#FF725E;" d="M596.776,242.096c1.633-5.19,7.329-24.288,6.05-34.354c-1.022-8.045-8.222-18.345-10.381-23.845
						c-1.016-2.589-9.106-5.258-13.932-6.683l-4.801-5.671l-0.401,2.768c-2.336,2.952-7.007,5.072-11.462,4.676
						c-7.132-0.634-12.946-3.549-16.871-7.848c-18.517,5.646-18.459,6.907-22.018,8.322c-4.579,1.822,9.124,45.708,9.124,45.708
						s4.909,27.566,0.291,36.86c-2.601,5.234-5.61,11.198-7.827,16.064c0,0-6.153,11.739-4.836,11.434
						c2.77-0.641,22.007,4.02,40.066,4.967c33.413,1.752,39.798-3.198,39.798-3.198c-1.745-8.543-4.673-38.52-4.667-44.333
						C594.91,246.004,596.487,243.015,596.776,242.096z"/>
				</g>
				<g>
					<g>
						<g>
							<g>
								<g>
									<path style="fill:#FF725E;" d="M574.299,172.913c0,0,21.772,5.609,23.902,8.503c5.793,7.871,40.673,61.722,23.55,77.783
										c-11.216,10.521-26.966-11.675-26.966-11.675L574.299,172.913z"/>
								</g>
							</g>
						</g>
					</g>
				</g>
				<g>
					<g>
						<g>
							<path style="fill:#263238;" d="M619.656,236.328c-0.009,0.033-0.547-0.061-1.525-0.26c-1.068-0.221-2.468-0.51-4.172-0.862
								c-3.547-0.717-8.519-1.733-14.22-2.553l0.304-0.172c-0.551,1.36-1.123,2.772-1.708,4.215
								c-1.463,3.571-2.846,6.946-4.061,9.912l-0.041-0.249c2.547,3.055,4.707,5.647,6.301,7.559
								c0.709,0.878,1.291,1.598,1.748,2.164c0.398,0.506,0.6,0.786,0.578,0.803c-0.022,0.017,1.605,0.736-0.705-0.703
								c-0.487-0.542-1.106-1.233-1.861-2.075c-1.634-1.879-3.851-4.427-6.463-7.43l-0.097-0.111l0.056-0.138
								c1.198-2.972,2.562-6.354,4.004-9.933c0.588-1.442,1.163-2.853,1.717-4.212l0.083-0.205l0.221,0.033
								c5.737,0.851,10.69,1.934,14.225,2.748c1.766,0.41,3.173,0.764,4.137,1.023C619.142,236.139,619.664,236.295,619.656,236.328
								z"/>
						</g>
					</g>
				</g>
				<g>
					<g>
						<g>
							<path style="fill:#263238;" d="M598.717,233.795c-0.039-0.006,0.022-0.634,0.164-1.765c0.155-1.223,0.359-2.837,0.606-4.787
								c0.468-4.034,1.118-9.658,0.535-15.825c-0.551-6.182-2.674-11.49-4.501-15.124c-0.915-1.826-1.743-3.262-2.32-4.253
								c-0.577-0.991-0.906-1.535-0.869-1.557c0.016-0.01,0.119,0.113,0.299,0.357c0.181,0.244,0.44,0.609,0.757,1.09
								c0.637,0.959,1.521,2.374,2.489,4.19c1.929,3.61,4.147,8.979,4.705,15.245c0.59,6.244-0.131,11.898-0.701,15.927
								c-0.294,2.02-0.581,3.646-0.784,4.769C598.889,233.184,598.755,233.801,598.717,233.795z"/>
						</g>
					</g>
				</g>
			</g>
			<g style="opacity:0.3;">
				<path d="M527.414,274.021l41.207-18.976l-2.788-8.146l6.337-2.418l10.335,1.347c5.182,0.675,10.382-1.105,14.062-4.814l0,0
					l-25.664-6.496l-29.284,6.247l-7.443-21.575l-1.833,6.322l1.53,13.568l1.036,14.665L527.414,274.021z"/>
			</g>
			<g>
				<g>
					<g>
						<g>
							<g>
								<g>
									<path style="fill:#FF725E;" d="M523.48,179.247c0,0-8.103,3.086-10.544,12.081c0,0-1.758,3.537-3.191,9.841
										c-3.479,15.302-10.98,44.045-11.28,51.663c-0.543,13.777,10.416,17.686,16.332,18.893
										c5.915,1.207,47.028-20.065,47.028-20.065l-8.542-23.212l-25.112,10.39c0,0,5.735-17.701,7.386-24.938
										C537.207,206.66,523.48,179.247,523.48,179.247z"/>
								</g>
							</g>
						</g>
					</g>
				</g>
			</g>
			<g>
				<g>
					<g>
						<g>
							<g>
								<g>
									<g>
										<g>
											<path style="fill:#FFBF9D;" d="M599.892,229.924c-0.505-2.269-0.583-4.632-0.228-6.929
												c0.213-1.382,0.405-2.817,0.146-4.191c-0.259-1.375-1.536-2.826-2.931-2.715l-2.095,10.088L599.892,229.924z"/>
										</g>
									</g>
								</g>
							</g>
						</g>
					</g>
				</g>
				<g>
					<g>
						<g>
							<g>
								<g>
									<g>
										<g>
											<g>
												<path style="fill:#263238;" d="M598.921,206.244l-7.394,35.657L574,240.835l5.193-35.272
													c0.137-0.929,0.934-1.617,1.874-1.616l16.005,0.022C598.27,203.971,599.165,205.071,598.921,206.244z"/>
											</g>
										</g>
									</g>
								</g>
							</g>
						</g>
					</g>
					<g>
						<g>
							<g>
								<g>
									<g>
										<g>
											<g>
												<g>
													<path style="fill:#455A64;" d="M579.211,215.507c0.025,0.004,0.118-0.369,0.266-1.049
														c0.153-0.746,0.351-1.717,0.59-2.885c0.24-1.242,0.521-2.69,0.829-4.287c0.042-0.199,0.069-0.42,0.127-0.581
														c0.064-0.17,0.169-0.328,0.31-0.45c0.139-0.123,0.311-0.213,0.496-0.253c0.174-0.045,0.397-0.022,0.624-0.029
														c0.895-0.004,1.82-0.008,2.768-0.011c3.794-0.021,7.228-0.06,9.714-0.107c1.192-0.03,2.182-0.055,2.944-0.074
														c0.695-0.026,1.079-0.052,1.079-0.077c0-0.025-0.385-0.047-1.08-0.065c-0.762-0.011-1.752-0.025-2.944-0.042
														c-2.486-0.02-5.92-0.021-9.714-0.001c-0.948,0.006-1.873,0.013-2.768,0.019c-0.218,0.01-0.444-0.019-0.7,0.042
														c-0.244,0.054-0.469,0.174-0.65,0.337c-0.183,0.162-0.319,0.37-0.401,0.594c-0.079,0.238-0.093,0.434-0.135,0.637
														c-0.28,1.602-0.534,3.055-0.752,4.301c-0.193,1.177-0.353,2.154-0.476,2.906
														C579.232,215.12,579.187,215.502,579.211,215.507z"/>
												</g>
											</g>
										</g>
									</g>
								</g>
							</g>
						</g>
					</g>
					<g>
						<g>
							<g>
								<g>
									<g>
										<g>
											<g>
												<path style="fill:#FAFAFA;" d="M588.58,207.728c0.167-0.314,0.521-0.699,1.046-0.521
													c0.206,0.024,0.604,0.334,0.623,0.696c0.018,0.355-0.171,0.718-0.482,0.891c-0.311,0.173-0.729,0.139-0.997-0.095
													C588.502,208.465,588.414,208.043,588.58,207.728z"/>
											</g>
										</g>
									</g>
								</g>
							</g>
						</g>
					</g>
				</g>
				<g>
					<g>
						<g>
							<g>
								<g>
									<g>
										<g>
											<path style="fill:#FFBF9D;" d="M589.065,218.488c0.403,0.103,9.679,4.89,9.679,4.89l4.839,5.102
												c0,0,1.745,2.954,0.328,7.561c-1.416,4.606-3.727,6.226-9.059,7.545l-10.076-1.592l-5.092-4.179
												c-1.003-0.823-1.404-2.175-1.011-3.412l0.068-0.214l-0.579-0.962c-0.364-0.605-0.328-1.37,0.09-1.939l0,0
												c0.571-0.778,1.665-0.947,2.445-0.377l5.743,4.199l3.948,0.521l0.592-1.296l-5.788-3.005l-7.365-5.7
												c-0.974-0.754-1.123-2.167-0.328-3.107l0,0c0.68-0.804,1.84-1.001,2.747-0.468l6.841,4.021l7.143,3.153l-1.126-2.837
												l-8.396-6.216C584.706,220.178,584.045,217.205,589.065,218.488z"/>
										</g>
									</g>
								</g>
							</g>
						</g>
					</g>
				</g>
				<g>
					<g>
						<g>
							<g>
								<g>
									<g>
										<g>
											<g>
												<path style="fill:#FFBF9D;" d="M588.22,213.598c0,0-1.931-1.105-5.144,0.223c-3.213,1.329-7.303,3.337-7.303,3.337
													l-6.153,1.757l0.727-1.521c0,0,6.073,0.615,5.782-3.799l-3.66,0.159l-3.143-1.615l-6.181,6.017l-2.331,8.512
													l-6.812,3.527l5.35,14.56l9.613-5.334l12.043-0.236l4.413-3.562l0.489-4.532l4.318-4.399c0,0,0.549-2.204-1.443-2.415
													c-1.991-0.211-6.787,4.549-6.787,4.549l-4.805,0.117c0,0-0.826-0.757-0.15-1.183c0.675-0.426,14.843-7.387,15.469-8.949
													c0.626-1.562,1.276-2.582-0.131-3.016c-1.406-0.435-3.751,0.361-3.751,0.361S589.287,213.938,588.22,213.598z"/>
											</g>
										</g>
									</g>
								</g>
							</g>
						</g>
					</g>
					<g>
						<g>
							<g>
								<g>
									<g>
										<g>
											<g>
												<g>
													<path style="fill:#FF9A6C;" d="M576.468,222.296c0.045,0.091,2.871-1.227,6.312-2.943
														c3.442-1.716,6.194-3.18,6.149-3.271c-0.045-0.09-2.871,1.227-6.313,2.943
														C579.175,220.741,576.422,222.205,576.468,222.296z"/>
												</g>
											</g>
										</g>
									</g>
								</g>
							</g>
						</g>
					</g>
					<g>
						<g>
							<g>
								<g>
									<g>
										<g>
											<g>
												<g>
													<path style="fill:#FF9A6C;" d="M573.61,233.608c-0.005,0.024,0.251,0.108,0.722,0.233
														c0.471,0.123,1.155,0.295,2.016,0.445c0.86,0.148,1.904,0.279,3.072,0.214c1.166-0.06,2.447-0.384,3.644-1.008
														c2.417-1.249,4.023-3.162,5.093-4.514c0.536-0.688,0.943-1.263,1.219-1.664c0.274-0.402,0.416-0.631,0.396-0.647
														c-0.046-0.035-0.707,0.816-1.815,2.146c-1.115,1.305-2.724,3.147-5.058,4.351c-1.158,0.602-2.374,0.919-3.5,0.997
														c-1.128,0.082-2.154-0.019-3.009-0.133C574.677,233.781,573.622,233.547,573.61,233.608z"/>
												</g>
											</g>
										</g>
									</g>
								</g>
							</g>
						</g>
					</g>
				</g>
			</g>
			<g>
				<g>
					<g>
						<g>
							<g>
								<g>
									<g>
										<path style="fill:#FF9A6C;" d="M553.959,230.195c-0.005-0.009,0.141-0.096,0.432-0.258
											c0.316-0.172,0.746-0.405,1.297-0.705c1.174-0.622,2.863-1.518,5.03-2.666l-0.058,0.072
											c0.621-2.317,1.392-5.194,2.285-8.524l0.011-0.042l0.032-0.032c1.832-1.796,3.909-3.833,6.159-6.04l0.1-0.098l0.126,0.064
											c0.974,0.497,2.047,1.044,3.147,1.605l-0.103-0.022c1.134-0.052,2.382-0.11,3.66-0.169l0.225-0.01l-0.001,0.211
											c-0.004,0.654-0.018,1.366-0.388,1.982c-0.336,0.617-0.892,1.1-1.516,1.414c-1.27,0.612-2.693,0.732-4.115,0.648
											l0.232-0.131c-0.222,0.468-0.472,0.993-0.724,1.522l-0.276-0.327c1.935-0.556,4.019-1.154,6.15-1.766l-0.04,0.016
											c1.936-0.887,3.921-1.797,5.946-2.725c1.918-0.977,4.391-1.881,6.736-0.839l-0.049-0.022
											c0.286,0.09,0.524,0.334,0.631,0.593c0.112,0.259,0.152,0.526,0.156,0.781c0.008,0.516-0.072,1.005-0.208,1.504
											l-0.331-0.318c0.71-0.226,1.43-0.393,2.191-0.47c0.748-0.051,1.582-0.109,2.345,0.421
											c0.185,0.145,0.339,0.381,0.379,0.627c0.039,0.244,0.002,0.463-0.042,0.667c-0.102,0.402-0.256,0.757-0.402,1.111
											l-0.219,0.527c-0.026,0.077-0.084,0.191-0.16,0.307c-0.071,0.097-0.144,0.168-0.218,0.251
											c-0.298,0.287-0.615,0.515-0.933,0.747c-2.566,1.734-5.245,3.122-7.857,4.525c-1.314,0.683-2.616,1.36-3.904,2.029
											c-0.645,0.331-1.286,0.661-1.924,0.988c-0.292,0.163-0.718,0.341-0.756,0.469c-0.077,0.119,0.103,0.453,0.316,0.647
											l-0.177-0.066c1.627-0.038,3.228-0.076,4.805-0.112l-0.169,0.072c1.465-1.404,2.956-2.714,4.619-3.762
											c0.414-0.263,0.856-0.489,1.324-0.669c0.462-0.171,1.051-0.25,1.541-0.067c0.514,0.147,0.955,0.59,1.104,1.098
											c0.153,0.506,0.146,1.001,0.041,1.498l-0.012,0.059l-0.047,0.048c-1.499,1.52-2.937,2.979-4.327,4.39l0.061-0.129
											c-0.172,1.558-0.339,3.067-0.5,4.531l-0.01,0.085l-0.066,0.053c-1.549,1.243-3.021,2.423-4.423,3.548l-0.051,0.041
											l-0.064,0.001c-4.664,0.071-8.708,0.132-12.044,0.182l0.063-0.017c-3.075,1.675-5.482,2.986-7.149,3.894
											c-0.804,0.429-1.428,0.762-1.877,1.001c-0.199,0.102-0.356,0.182-0.484,0.248c-0.109,0.054-0.166,0.078-0.169,0.073
											c-0.003-0.005,0.048-0.041,0.151-0.105c0.123-0.074,0.275-0.165,0.466-0.28c0.44-0.254,1.053-0.607,1.843-1.063
											c1.652-0.934,4.038-2.283,7.087-4.005l0.029-0.016l0.035-0.001c3.335-0.08,7.379-0.177,12.042-0.288l-0.115,0.042
											c1.396-1.133,2.86-2.323,4.402-3.575l-0.075,0.138c0.154-1.464,0.313-2.974,0.477-4.533l0.008-0.075l0.053-0.055
											c1.384-1.416,2.817-2.881,4.309-4.408l-0.059,0.106c0.183-0.802-0.007-1.825-0.844-2.037
											c-0.794-0.281-1.67,0.226-2.466,0.698c-1.599,1.013-3.087,2.324-4.521,3.705l-0.072,0.07l-0.097,0.003
											c-1.577,0.04-3.178,0.081-4.805,0.122l-0.106,0.003l-0.071-0.069c-0.154-0.15-0.273-0.298-0.377-0.491
											c-0.095-0.184-0.181-0.458-0.063-0.729c0.119-0.264,0.361-0.387,0.508-0.466l0.479-0.253
											c0.638-0.329,1.279-0.659,1.924-0.992c1.286-0.67,2.585-1.347,3.897-2.031c2.6-1.398,5.29-2.798,7.798-4.493
											c0.304-0.221,0.612-0.446,0.867-0.692c0.052-0.061,0.118-0.125,0.159-0.182c0.027-0.047,0.066-0.097,0.102-0.202
											l0.221-0.532c0.267-0.662,0.667-1.497,0.216-1.803c-0.492-0.358-1.277-0.373-1.966-0.307
											c-0.707,0.07-1.416,0.234-2.076,0.444l-0.459,0.146l0.128-0.464c0.12-0.436,0.197-0.911,0.189-1.342
											c-0.004-0.438-0.148-0.817-0.428-0.898l-0.009-0.003l-0.041-0.019c-0.94-0.443-2.127-0.483-3.186-0.283
											c-1.083,0.179-2.084,0.672-3.098,1.139c-2.019,0.92-3.998,1.821-5.928,2.701l-0.024,0.011l-0.017,0.005
											c-2.134,0.606-4.219,1.198-6.156,1.748l-0.502,0.143l0.225-0.47c0.254-0.528,0.505-1.053,0.729-1.52l0.068-0.142
											l0.165,0.011c1.332,0.086,2.726-0.035,3.869-0.587c0.565-0.282,1.041-0.698,1.33-1.223
											c0.322-0.518,0.335-1.151,0.345-1.744l0.224,0.201c-1.278,0.052-2.527,0.103-3.661,0.149l-0.055,0.002l-0.048-0.025
											c-1.097-0.568-2.167-1.121-3.138-1.624l0.225-0.034c-2.266,2.19-4.358,4.212-6.203,5.994l0.044-0.074
											c-0.929,3.32-1.732,6.188-2.378,8.499l-0.014,0.05l-0.044,0.022c-2.189,1.107-3.895,1.969-5.081,2.569
											c-0.563,0.277-1.002,0.494-1.324,0.653C554.119,230.135,553.964,230.204,553.959,230.195z"/>
									</g>
								</g>
							</g>
						</g>
					</g>
				</g>
			</g>
			<g>
				<g>
					<path style="fill:#263238;" d="M528.159,267.71c-0.006-0.013,0.209-0.13,0.628-0.342c0.456-0.225,1.073-0.529,1.854-0.914
						c1.664-0.799,4.024-1.932,6.972-3.347c6.005-2.839,14.395-6.804,24.104-11.394l-0.129,0.311
						c-1.554-4.265-3.235-8.876-4.974-13.647c-1.225-3.373-2.42-6.666-3.574-9.843l0.339,0.148
						c-9.542,4.006-18.037,7.572-24.556,10.31l-0.026,0.011l-0.028,0.003c-2.24,0.222-4.239,0.662-5.892,1.315
						c-1.655,0.646-2.945,1.513-3.823,2.393c-0.885,0.879-1.363,1.743-1.613,2.345c-0.12,0.305-0.197,0.543-0.242,0.705
						c-0.042,0.163-0.062,0.247-0.07,0.246c-0.01-0.001-0.007-0.089,0.019-0.257c0.028-0.168,0.09-0.415,0.197-0.731
						c0.223-0.625,0.682-1.525,1.566-2.447c0.876-0.923,2.181-1.836,3.858-2.52c1.674-0.691,3.699-1.162,5.964-1.41l-0.053,0.013
						c6.504-2.773,14.979-6.387,24.499-10.446l0.247-0.105l0.092,0.253c1.157,3.176,2.355,6.467,3.584,9.84
						c1.732,4.774,3.406,9.387,4.954,13.655l0.078,0.216l-0.207,0.096c-9.741,4.522-18.158,8.43-24.183,11.227
						c-2.974,1.359-5.355,2.448-7.034,3.215c-0.796,0.354-1.425,0.633-1.889,0.84C528.393,267.633,528.165,267.724,528.159,267.71z"
						/>
				</g>
			</g>
			<g>
				<g>
					<path style="fill:#263238;" d="M536.54,203.947c-0.073,0.033-0.643-1.119-1.63-2.941c-0.985-1.822-2.418-4.301-4.187-6.917
						c-1.773-2.614-3.543-4.864-4.87-6.456c-1.326-1.592-2.184-2.549-2.126-2.605c0.026-0.025,0.271,0.185,0.692,0.588
						c0.424,0.4,1.01,1.006,1.712,1.775c1.405,1.538,3.236,3.77,5.023,6.405c1.783,2.637,3.177,5.165,4.083,7.04
						c0.454,0.937,0.799,1.707,1.013,2.249C536.468,203.627,536.573,203.932,536.54,203.947z"/>
				</g>
			</g>
			<g>
				<g>
					<path style="fill:#263238;" d="M537.531,208.903c0.035,0.009-0.065,0.461-0.282,1.262c-0.217,0.802-0.548,1.957-0.971,3.379
						c-0.846,2.845-2.054,6.763-3.442,11.074c-1.388,4.312-2.694,8.2-3.687,10.998c-0.498,1.399-0.91,2.527-1.215,3.3
						c-0.303,0.773-0.487,1.195-0.521,1.183c-0.034-0.012,0.085-0.457,0.329-1.25c0.281-0.891,0.636-2.014,1.058-3.351
						c0.939-2.928,2.174-6.78,3.54-11.04c1.384-4.253,2.635-8.1,3.587-11.024c0.45-1.328,0.828-2.443,1.128-3.329
						C537.332,209.322,537.497,208.895,537.531,208.903z"/>
				</g>
			</g>
		</g>
	</g>
</g>
</svg>
